<?xml version="1.0" encoding="utf-8"?>
<!-- Generator: Adobe Illustrator 29.5.0, SVG Export Plug-In . SVG Version: 9.03 Build 0)  -->
<svg version="1.1" id="Layer_1" xmlns="http://www.w3.org/2000/svg" xmlns:xlink="http://www.w3.org/1999/xlink" x="0px" y="0px"
	 viewBox="0 0 1920 389.41" style="enable-background:new 0 0 1920 389.41;" xml:space="preserve">
<style type="text/css">
	.st0{fill:#1A2F59;}
	.st1{fill:#7E9AB3;}
	.st2{fill:#A4B4C4;}
	.st3{fill:#92A0B1;}
	.st4{fill:#162D54;}
	.st5{fill:none;stroke:#1A2F59;stroke-width:1.9193;stroke-miterlimit:10;}
	.st6{clip-path:url(#SVGID_00000024723351153108323020000000913406389734729626_);}
</style>
<g>
	<g>
		<path class="st0" d="M310.95,122.31c0,0,0.11-4.8,0.18-7.44c0.21-5.01,0.5-10.53,0.92-16.54l0.07-0.28
			c1.21-4.94,2.45-10.88,3.76-17.82c1.1-0.07,2.16-0.14,3.16-0.21c1.53-0.11,2.95-0.18,4.3-0.21c2.06-0.11,3.94-0.14,5.64-0.14
			c3.27,0,5.36,0.21,6.25,0.64c0.32,0.14,0.57,0.21,0.82,0.21c0.25,0,0.43-0.04,0.57-0.18c0.14-0.11,0.25-0.25,0.25-0.43
			c0-0.28-0.28-0.6-0.82-0.96c-0.53-0.32-1.7-0.57-3.51-0.75c-1.81-0.14-3.98-0.21-6.57-0.21c-0.71,0-1.42,0-2.13,0.04
			c-1.42,0-2.91,0.03-4.47,0.11c-0.99,0.03-2.06,0.07-3.12,0.11c1.6-8.82,2.41-15.37,2.41-19.6c0-3.03-0.46-4.73-1.35-5.09
			l-0.25-0.07c-2.02,0-3.9,8.32-5.61,25c-5.32,0.36-10.15,0.75-14.52,1.28c-4.33,0.5-7.24,1.07-8.74,1.64
			c-0.5,0.28-0.74,0.67-0.74,1.17c0,0.11,0.04,0.25,0.11,0.46c0.07,0.18,0.21,0.32,0.43,0.46c0.21,0.11,0.46,0.18,0.71,0.18
			l0.42-0.07c1.31-0.5,4.05-1,8.2-1.56c4.12-0.57,8.77-1.04,13.95-1.46c-0.85,8.89-1.49,17.22-1.92,25.04
			c-0.21,3.52-0.39,6.65-0.53,9.39c-0.11,2.06-0.18,3.91-0.25,5.51v1.46c0.5,0.25,1.06,0.39,1.67,0.39
			C310.49,122.38,310.95,122.31,310.95,122.31 M313.05,84.61l0.35-4.2l0.46-0.07L313.05,84.61z M314.22,78.31l-0.6,0.07
			c1.46-13.23,2.45-19.95,2.98-20.16c0.14,0,0.21,0.32,0.21,0.92C316.81,62.24,315.92,68.64,314.22,78.31"/>
		<path class="st0" d="M349.72,95.99c-0.18-0.14-0.35-0.25-0.57-0.25c-0.28,0-0.53,0.1-0.75,0.32c-4.97,6.26-8.84,9.36-11.61,9.36
			c-1.1,0-2.06-0.43-2.8-1.28c-0.75-0.85-1.38-1.92-1.92-3.2c-0.5-1.28-0.99-2.59-1.42-4.02c-0.57-1.85-1.14-3.45-1.81-4.8
			c-0.64-1.35-1.53-2.03-2.63-2.03c-2.13,0.28-4.58,4.27-7.32,11.95l-0.14,0.25l1.31-11.45l0.67-2.24c0.96-3.17,1.85-6.11,2.59-8.78
			c0.18-0.61,0.32-1.21,0.5-1.78c2.2-8.11,3.3-13.8,3.3-17.04c0-1.88-0.5-2.81-1.42-2.81c-1.31,0.28-2.59,2.78-3.8,7.47
			c-0.92,3.63-1.77,7.79-2.55,12.49c-0.11,0.6-0.21,1.24-0.32,1.88c-0.11,0.78-0.25,1.6-0.36,2.42c-0.92,6.51-1.67,12.59-2.24,18.32
			c-0.53,5.69-0.82,9.53-0.82,11.45c0,0.32,0.11,0.6,0.36,0.85c0.25,0.25,0.53,0.39,0.85,0.39c0.36,0,0.6-0.14,0.85-0.39
			c0.21-0.25,0.32-0.53,0.32-0.92c0-0.75,0.32-2.17,0.89-4.27c0.6-2.13,1.35-4.37,2.2-6.72c0.85-2.35,1.7-4.41,2.59-6.15
			c0.85-1.75,1.56-2.63,2.09-2.63c0.53,0.18,0.99,0.74,1.42,1.7c0.43,0.96,0.85,2.07,1.28,3.27c0.5,1.53,1.07,3.06,1.78,4.59
			c1.6,3.7,3.66,5.55,6.21,5.55c3.44,0,7.88-3.45,13.35-10.31c0.14-0.14,0.18-0.36,0.18-0.53C350,96.38,349.93,96.17,349.72,95.99
			 M322.35,75.04c0.99-6.93,2.02-11.59,3.05-13.98c-0.14,2.7-1.28,8.03-3.37,15.97L322.35,75.04z"/>
		<path class="st1" d="M713.47,349.23c-0.68-0.41-1.5-1.03-2.46-1.84c-0.96-0.82-1.63-1.57-2.05-2.26
			c-0.13-0.27-0.27-0.61-0.41-1.02s-0.2-1.03-0.2-1.84v-3.69v-5.33c0-1.23,0.24-2.22,0.71-2.97c0.47-0.75,1.19-1.54,2.14-2.36
			c1.23-1.23,2.66-2.39,4.3-3.48c1.63-1.09,4.09-2.46,7.36-4.1l5.52-2.87l8.79-8.81c7.77-7.78,15.78-16.29,24.03-25.51
			c8.25-9.22,18.44-21.14,30.57-35.75c12.82-15.43,25.5-31.35,38.04-47.74c12.55-16.39,22.63-30.25,30.27-41.6
			c14.72-21.71,24.06-38.38,28.02-49.99c0.82-2.46,1.4-4.54,1.74-6.25c0.34-1.71,0.51-3.59,0.51-5.63c0-8.61-3.07-14.14-9.2-16.6
			c-0.41-0.13-0.82-0.34-1.23-0.61c-1.23-0.54-2.32-0.96-3.27-1.23c-2.19-0.41-4.5-0.62-6.96-0.62c-8.18,0-18.27,2.46-30.27,7.38
			c-15.68,6.56-32.24,16.32-49.7,29.3c-31.91,24.45-51.41,45.76-58.49,63.92c-0.55,1.64-0.82,2.94-0.82,3.89
			c0,1.1,0.27,2.05,0.82,2.87c1.23,1.78,2.21,3.96,2.97,6.56c0.75,2.59,1.12,4.85,1.12,6.76c0,0.82-0.04,1.4-0.1,1.74
			c-0.07,0.34-0.31,0.65-0.71,0.92c-0.55,0.55-1.16,0.82-1.84,0.82c-0.82,0-1.77-0.4-2.86-1.23c-2.73-1.77-4.7-3.69-5.93-5.74
			c-1.23-2.05-2.04-5.05-2.46-9.02c-0.41-2.86-0.61-5.39-0.61-7.58c0-2.05,0.2-3.96,0.61-5.73c2.05-8.06,9.13-18.37,21.27-30.94
			c15.14-15.16,32.49-28.99,52.05-41.49c19.56-12.5,37.8-21.41,54.71-26.74c8.18-2.46,15.34-3.69,21.48-3.69
			c1.09,0,2.18,0.07,3.27,0.2c2.18,0.14,3.99,0.41,5.42,0.82c1.43,0.41,2.89,0.96,4.4,1.64c5.32,2.73,8.8,7.31,10.43,13.73
			c0.54,1.77,0.85,4.44,0.92,7.99c0.07,3.55-0.04,6.62-0.31,9.22c-1.63,15.16-9.54,33.87-23.72,56.13
			c-23.05,35.24-59.11,80.66-108.19,136.25c-1.63,1.78-3.2,3.48-4.7,5.12c-1.63,1.77-2.97,3.28-3.99,4.51
			c-1.03,1.23-1.61,1.91-1.74,2.05c-0.13,0.41-0.2,0.75-0.2,1.03v0.41c0,0.27,0.2,0.41,0.62,0.41c0.13,0,1.05-0.2,2.76-0.61
			c1.7-0.41,3.78-0.89,6.24-1.43c16.5-4.23,31.91-7.04,46.22-8.4c7.64-0.54,14.59-0.82,20.86-0.82c12.13,0,21.68,1.1,28.63,3.28
			c1.36,0.41,2.55,0.93,3.58,1.54c1.02,0.61,1.94,1.4,2.76,2.35c1.77,1.78,2.66,3.49,2.66,5.12c0,0.41-0.07,0.75-0.2,1.03
			c-0.14,0.27-0.34,0.48-0.62,0.61h-0.71c-0.2,0-0.45-0.07-0.71-0.2c-0.27-0.13-0.61-0.41-1.02-0.82c-1.36-0.82-2.66-1.47-3.89-1.94
			c-1.23-0.48-2.65-0.92-4.29-1.33c-0.96-0.13-1.84-0.27-2.66-0.41c-0.82-0.13-1.91-0.2-3.27-0.2h-5.93
			c-5.73,0-10.16,0.2-13.29,0.61c-25.5,2.6-49.77,9.08-72.81,19.47c-4.64,2.05-8.97,4.17-12.99,6.35c-4.02,2.19-9.1,5.12-15.24,8.81
			c-4.09,2.46-7.16,4.27-9.2,5.43c-2.04,1.16-3.37,1.84-3.99,2.05c-0.61,0.2-1.13,0.3-1.54,0.3
			C714.08,349.44,713.74,349.37,713.47,349.23"/>
		<path class="st1" d="M883.14,348.41c-0.41,0-0.96-0.13-1.64-0.41c-0.68-0.27-1.36-0.55-2.04-0.82c-1.5-0.68-2.66-1.54-3.48-2.56
			c-0.82-1.03-1.57-2.42-2.25-4.2c-0.41-1.1-0.68-1.98-0.82-2.66c-0.14-0.68-0.2-1.71-0.2-3.07c0-0.82,0.03-1.47,0.1-1.95
			c0.06-0.47,0.13-0.85,0.2-1.12c0.07-0.27,0.24-0.48,0.51-0.62c0.27-0.41,0.48-0.61,0.61-0.61h0.41c0.13,0,0.34,0.07,0.62,0.2
			c1.23,0.55,2.11,1.91,2.65,4.1l0.41,1.63c0.13,0.41,0.21,0.69,0.21,0.83c0.54,0.95,1.56,1.43,3.06,1.43
			c2.18,0,5.32-0.89,9.41-2.66c6.95-3.14,14.72-8.06,23.31-14.76c13.91-11.2,27.95-26.49,42.13-45.9
			c12.95-17.75,22.43-33.46,28.43-47.12c3.41-8.06,5.11-14.69,5.11-19.88c0-2.87-0.48-5.33-1.43-7.38c-0.69-1.5-1.77-2.97-3.27-4.4
			c-1.5-1.43-3.14-2.56-4.91-3.38c-4.23-1.91-8.93-2.86-14.11-2.86c-9,0-19.63,2.86-31.91,8.61c-7.09,3.28-16.84,9.42-29.25,18.44
			c-5.05,3.56-8.8,6.11-11.25,7.69c-2.45,1.57-4.5,2.76-6.13,3.58c-1.37,0.69-2.39,1.13-3.07,1.33c-0.68,0.2-1.57,0.31-2.65,0.31
			h-2.46c-0.55-0.13-1.16-0.34-1.84-0.61c-1.5-0.68-2.66-1.54-3.48-2.56c-0.82-1.02-1.57-2.7-2.25-5.02
			c-0.96-2.59-1.43-5.25-1.43-7.99v-1.85c1.09-12.7,7.16-31.41,18.2-56.14c8.45-18.57,17.38-36.13,26.79-52.65
			c1.64-2.87,2.79-4.95,3.48-6.25c0.68-1.29,1.03-2.15,1.03-2.56v-0.2c-0.14-0.41-0.55-0.62-1.23-0.62c-0.27,0-1.36,0.21-3.27,0.62
			c-1.91,0.41-4.06,0.92-6.44,1.54c-2.39,0.61-4.53,1.17-6.44,1.64c-1.91,0.48-3.07,0.79-3.48,0.92c-0.27,0.13-0.58,0.38-0.92,0.71
			c-0.34,0.34-0.65,0.72-0.92,1.13c-0.96,1.5-2.11,2.26-3.48,2.26c-0.95,0-2.14-0.07-3.58-0.21c-1.43-0.13-2.73-0.27-3.89-0.41
			c-1.16-0.13-1.88-0.2-2.15-0.2c-1.23-0.68-1.84-1.64-1.84-2.87c0-0.96,0.34-2.12,1.02-3.48c0.54-1.23,1.23-2.08,2.05-2.56
			c0.82-0.48,2.32-0.99,4.5-1.54c1.91-0.41,3.24-0.68,3.99-0.82c0.75-0.13,1.33-0.2,1.74-0.2c0.41,0,0.75,0.07,1.02,0.2
			c0.68,0,1.36,0.14,2.05,0.41l1.63,0.82l4.71-1.03c5.32-0.95,9.75-1.77,13.29-2.46c3.54-0.69,5.59-1.23,6.14-1.64
			c0.27-0.14,0.65-0.45,1.12-0.92c0.48-0.48,1.16-1.4,2.05-2.77c0.89-1.36,2.07-3.28,3.58-5.74c0.54-0.82,1.19-1.7,1.94-2.66
			c0.75-0.95,1.47-1.77,2.15-2.46c0.54-0.68,0.99-1.16,1.33-1.43c0.34-0.27,0.65-0.47,0.92-0.61c0.27-0.13,0.61-0.2,1.02-0.2
			c1.5,0,2.76,0.62,3.78,1.84c1.03,1.23,2.08,3.35,3.17,6.35c0.13,0.27,0.2,0.55,0.2,0.82c0.54,1.23,1.06,2.12,1.54,2.66
			c0.48,0.55,1.19,0.82,2.15,0.82c1.09,0,2.79-0.21,5.11-0.62c0.27,0,0.62-0.07,1.03-0.2c17.72-3,35.24-4.98,52.56-5.94
			c4.36-0.27,13.22-0.41,26.59-0.41h4.29c1.77-0.13,3.34-0.2,4.71-0.2c1.5,0,2.79,0.07,3.88,0.2h5.22c1.29,0,2.25,0.07,2.86,0.21
			c0.61,0.14,1.05,0.31,1.33,0.51c0.27,0.2,0.54,0.51,0.82,0.92c0.13,0,0.2,0.07,0.2,0.2c0.27,0.27,0.48,0.55,0.62,0.82
			c0.13,0.27,0.2,0.61,0.2,1.02c0,0.27-0.07,0.61-0.2,1.03c0,0.82-0.14,1.54-0.41,2.15s-0.61,1.4-1.02,2.36
			c-0.82,1.36-1.64,2.49-2.46,3.38c-0.82,0.89-1.5,1.33-2.04,1.33c-0.14,0-0.41-0.13-0.82-0.41c-0.41-0.27-0.82-0.62-1.23-1.03
			c-1.5-1.91-4.09-3.35-7.77-4.3c-6.01-1.5-14.52-2.25-25.57-2.25c-2.59,0-5.32,0.07-8.18,0.2c-15,0.41-31.29,1.84-48.88,4.3
			c-0.27,0.13-0.55,0.2-0.82,0.2c-3.55,0.41-6.07,0.79-7.57,1.12c-1.5,0.35-2.49,0.79-2.97,1.34c-0.48,0.54-0.78,1.3-0.92,2.25v0.41
			c-0.13,0.68-0.38,1.5-0.71,2.46c-0.34,0.96-0.71,1.85-1.13,2.66c-0.41,0.69-1.7,2.8-3.89,6.35c-2.18,3.56-4.77,7.51-7.77,11.89
			c-15.27,22.95-27,41.87-35.18,56.75c-5.05,9.29-9.38,18.03-12.99,26.22c-3.62,8.2-5.9,14.62-6.85,19.26
			c-0.14,0.69-0.2,1.23-0.2,1.64c0,1.1,0.41,1.64,1.23,1.64c2.86,0,10.97-3.89,24.34-11.68c5.45-3.28,9.95-5.84,13.5-7.69
			c3.54-1.84,6.88-3.44,10.02-4.81c9.41-4.23,18.34-7.1,26.8-8.61c2.99-0.41,6.34-0.61,10.02-0.61c3.69,0,6.61,0.2,8.8,0.61
			c9.54,2.05,16.02,7.58,19.43,16.59c0.95,2.19,1.6,4.24,1.94,6.15c0.34,1.91,0.51,4.37,0.51,7.38c0,7.51-1.43,15.16-4.29,22.95
			c-5.05,13.93-13.2,28.82-24.44,44.67c-11.25,15.85-23.62,29.64-37.12,41.39c-11.72,10.52-22.7,17.42-32.93,20.69
			c-4.09,1.23-7.64,1.84-10.63,1.84C885.32,348.62,884.23,348.55,883.14,348.41"/>
		<polygon class="st0" points="410.6,128.6 410.6,246.42 338.13,128.6 305.77,128.6 305.77,300.59 335.69,300.59 335.69,182.77 
			408.3,300.59 440.56,300.59 440.56,128.6 		"/>
		<polygon class="st0" points="477.25,158.57 477.25,193.47 538.95,193.47 538.95,223.44 477.25,223.44 477.25,270.62 
			566.94,270.62 566.94,300.59 447.33,300.59 447.33,128.57 566.94,128.57 566.94,158.57 		"/>
		<path class="st0" d="M691.19,282.26c-3.39-3.63-6.51-7.5-9.35-11.64h-78.23V128.57h-29.92v172.03l138.78-1.56
			C704.61,294.55,697.46,288.95,691.19,282.26"/>
		<path class="st0" d="M755.81,273.81c-7.52,0-14.57-1.53-21.14-4.61c-6.57-3.05-12.37-7.33-17.35-12.76
			c-5.02-5.43-8.91-11.74-11.72-18.87c-2.81-7.13-4.24-14.76-4.24-22.98c0-8.08,1.39-15.72,4.17-22.91
			c2.17-5.6,5.02-10.66,8.57-15.21c0.07-2.07,0.34-4.08,0.75-5.97c2.4-9.47,9.93-20.57,23-34.15c3.63-3.63,7.39-7.19,11.25-10.66
			c-9.12,0.71-17.82,2.95-26.02,6.65c-10.23,4.62-19.22,11.03-26.94,19.18c-7.72,8.15-13.76,17.61-18.16,28.37
			c-4.37,10.76-6.54,22.34-6.54,34.69c0,12.29,2.17,23.83,6.54,34.59c4.4,10.8,10.44,20.26,18.16,28.44
			c7.72,8.22,16.7,14.63,26.94,19.25c3.89,1.76,7.89,3.19,12.03,4.27c6.81-6.89,13.86-14.49,21.08-22.5c1.42-1.6,2.91-3.3,4.47-5.06
			C759.06,273.74,757.44,273.81,755.81,273.81 M804.16,258.03c-10.64,12.63-22.06,25.86-34.25,39.71
			c9.12-2.07,17.96-3.73,26.46-4.92c10.74-6.28,19.68-14.43,26.9-24.41L804.16,258.03z M794.2,135.05
			c-4.23-2.34-8.57-4.24-13.08-5.7c-11.08,9.24-20.23,17.96-27.34,26.1c0.68-0.07,1.36-0.07,2.03-0.07c8.03,0,15.59,1.8,22.77,5.4
			c7.15,3.6,13.14,8.38,17.96,14.36l26.73-14.36C815.58,150.05,805.88,141.46,794.2,135.05"/>
		<path class="st2" d="M166.5,269.57H62.09c0.38,28.87,12.16,54.97,31.03,74.01l73.38-73.51V269.57z"/>
		<path class="st3" d="M166.5,270.07l-73.38,73.51c18.83,18.98,44.71,30.94,73.38,31.59V270.07z"/>
		<path class="st4" d="M242.11,343.58l-73.38-73.51v105.1C197.4,374.52,223.29,362.56,242.11,343.58"/>
		<path class="st0" d="M273.14,269.57H168.73v0.5l73.38,73.51C260.99,324.54,272.77,298.44,273.14,269.57"/>
		<path class="st3" d="M93.12,84.58l73.38,73.51V52.99C137.83,53.64,111.95,65.6,93.12,84.58"/>
		<path class="st2" d="M62.09,158.59H166.5v-0.5L93.12,84.58C74.25,103.62,62.47,129.72,62.09,158.59"/>
		<path class="st4" d="M134.74,236.02l-73.38-73.51v105.1C90.04,266.96,115.92,255,134.74,236.02"/>
		<path class="st0" d="M165.78,162.01H61.36v0.5l73.38,73.51C153.62,216.98,165.4,190.88,165.78,162.01"/>
		<path class="st0" d="M272.15,52.99H167.74v0.5L241.12,127C259.99,107.96,271.77,81.86,272.15,52.99"/>
		<path class="st4" d="M241.12,127l-73.38-73.51v105.1C196.41,157.94,222.29,145.98,241.12,127"/>
		<path class="st2" d="M242.11,192.87l-73.38,73.51v-105.1C197.4,161.93,223.29,173.88,242.11,192.87"/>
		<path class="st3" d="M273.14,266.88H168.73v-0.5l73.38-73.51C260.99,211.91,272.77,238.01,273.14,266.88"/>
	</g>
	<line class="st5" x1="952.36" y1="398.75" x2="1164.29" y2="12.31"/>
	<g>
		<defs>
			<polygon id="SVGID_1_" points="934.22,480.03 1242.31,-54.76 1936.87,-54.76 2137.35,175.36 2160.7,535.13 			"/>
		</defs>
		<clipPath id="SVGID_00000070118434027404643070000015669824184288139913_">
			<use xlink:href="#SVGID_1_"  style="overflow:visible;"/>
		</clipPath>
		<g style="clip-path:url(#SVGID_00000070118434027404643070000015669824184288139913_);">
			<g>
				<path class="st0" d="M1172.37,144.15c-4.48,0-8.59-1.12-12.34-3.36s-6.74-5.23-8.98-8.98c-2.24-3.74-3.36-7.89-3.36-12.44
					c0-2.34,0.28-4.51,0.83-6.52s1.41-4.03,2.58-6.07l19.66-34.15h14.19l-13.19,22.82c2.71-0.2,5.32,0.03,7.82,0.7
					c2.51,0.67,4.83,1.72,6.97,3.16c2.14,1.44,4.01,3.18,5.62,5.22c1.6,2.04,2.85,4.31,3.74,6.82s1.33,5.18,1.33,8.02
					c0,3.41-0.64,6.6-1.93,9.58c-1.29,2.98-3.07,5.61-5.34,7.9c-2.27,2.29-4.91,4.08-7.92,5.37S1175.81,144.15,1172.37,144.15z
					 M1172.37,131.92c2.44,0,4.61-0.59,6.52-1.78c1.91-1.19,3.4-2.73,4.49-4.64c1.09-1.91,1.63-3.93,1.63-6.07
					c0-2.31-0.55-4.41-1.66-6.32c-1.1-1.91-2.6-3.43-4.49-4.56c-1.89-1.14-4.02-1.71-6.39-1.71c-2.44,0-4.61,0.59-6.49,1.78
					c-1.89,1.19-3.37,2.73-4.44,4.64c-1.07,1.91-1.6,3.96-1.6,6.17c0,2.37,0.58,4.5,1.75,6.37c1.17,1.87,2.7,3.36,4.59,4.46
					C1168.16,131.37,1170.19,131.92,1172.37,131.92z"/>
				<path class="st0" d="M1217.42,87.35h-5.67v22.1h-7.13v-22.1h-4.33v-7.13h4.33v-9.18h7.13v9.18h5.67V87.35z"/>
				<path class="st0" d="M1248.29,90.98v18.48h-7.13V92.85c0-1.15-0.28-2.2-0.85-3.14c-0.57-0.94-1.32-1.7-2.27-2.25
					c-0.95-0.56-1.99-0.83-3.14-0.83c-1.15,0-2.2,0.28-3.14,0.83s-1.7,1.31-2.25,2.25c-0.56,0.95-0.83,1.99-0.83,3.14v16.61h-7.13
					l-0.03-43.85h7.13l0.03,17.22c0.99-1.05,2.18-1.89,3.57-2.5s2.88-0.92,4.47-0.92c2.12,0,4.06,0.52,5.82,1.56
					c1.75,1.04,3.15,2.44,4.2,4.18C1247.77,86.89,1248.29,88.83,1248.29,90.98z"/>
				<path class="st0" d="M1277.54,142.85v-70.2h7.62l37.06,57.52V72.64h7.02v70.2h-7.57l-37.11-57.52v57.52H1277.54z"/>
				<path class="st0" d="M1380.49,92.7h7.02v50.15h-7.02l-0.25-9.33c-1.64,3.18-3.93,5.74-6.87,7.7c-2.94,1.96-6.45,2.93-10.53,2.93
					c-3.68,0-7.12-0.69-10.33-2.08c-3.21-1.39-6.03-3.3-8.47-5.74c-2.44-2.44-4.35-5.27-5.72-8.47s-2.06-6.65-2.06-10.33
					c0-3.61,0.68-7,2.03-10.18c1.35-3.18,3.23-5.97,5.62-8.37c2.39-2.41,5.17-4.29,8.32-5.64c3.16-1.35,6.54-2.03,10.15-2.03
					c4.18,0,7.82,1,10.93,2.98c3.11,1.99,5.58,4.59,7.42,7.8L1380.49,92.7z M1362.69,137.33c3.58,0,6.65-0.88,9.23-2.63
					c2.57-1.75,4.55-4.12,5.94-7.1c1.39-2.98,2.08-6.25,2.08-9.83c0-3.68-0.7-7-2.11-9.95c-1.4-2.96-3.39-5.31-5.97-7.05
					c-2.57-1.74-5.63-2.61-9.18-2.61c-3.54,0-6.78,0.88-9.7,2.63c-2.93,1.75-5.25,4.12-6.97,7.1c-1.72,2.98-2.58,6.27-2.58,9.88
					c0,3.64,0.89,6.95,2.66,9.9c1.77,2.96,4.12,5.31,7.05,7.05C1356.06,136.46,1359.25,137.33,1362.69,137.33z"/>
				<path class="st0" d="M1421.16,99.72h-11.99l-0.05,43.13h-7.02l0.05-43.13h-9.08V92.7h9.08l-0.05-15.75h7.02l0.05,15.75h11.99
					V99.72z"/>
				<path class="st0" d="M1431.69,83.93c-1.14,0-2.1-0.38-2.88-1.13c-0.79-0.75-1.18-1.7-1.18-2.83c0-1.14,0.39-2.08,1.18-2.83
					c0.79-0.75,1.75-1.13,2.88-1.13c1.1,0,2.05,0.38,2.83,1.13c0.79,0.75,1.18,1.7,1.18,2.83c0,1.14-0.38,2.08-1.15,2.83
					C1433.78,83.55,1432.83,83.93,1431.69,83.93z M1428.13,92.7h7.02v50.15h-7.02V92.7z"/>
				<path class="st0" d="M1467.25,144.15c-4.61,0-8.82-1.19-12.61-3.56c-3.79-2.37-6.82-5.56-9.08-9.55
					c-2.26-3.99-3.38-8.42-3.38-13.26c0-3.68,0.65-7.11,1.96-10.3c1.3-3.19,3.1-6,5.39-8.42c2.29-2.42,4.96-4.32,8-5.69
					c3.04-1.37,6.29-2.06,9.73-2.06c4.61,0,8.82,1.19,12.61,3.56c3.79,2.37,6.82,5.57,9.08,9.58c2.26,4.01,3.39,8.46,3.39,13.34
					c0,3.64-0.65,7.05-1.96,10.23c-1.3,3.18-3.1,5.98-5.39,8.4c-2.29,2.42-4.95,4.32-7.97,5.69
					C1473.97,143.47,1470.72,144.15,1467.25,144.15z M1467.25,137.13c3.41,0,6.48-0.89,9.2-2.68c2.72-1.79,4.88-4.15,6.47-7.1
					c1.59-2.94,2.38-6.13,2.38-9.58c0-3.51-0.8-6.74-2.41-9.7s-3.77-5.32-6.49-7.1c-2.72-1.77-5.78-2.66-9.15-2.66
					c-3.41,0-6.48,0.9-9.2,2.68c-2.72,1.79-4.88,4.15-6.47,7.1c-1.59,2.94-2.38,6.17-2.38,9.68c0,3.61,0.82,6.88,2.46,9.8
					c1.64,2.93,3.83,5.25,6.57,6.97C1460.96,136.27,1463.97,137.13,1467.25,137.13z"/>
				<path class="st0" d="M1543.07,111.81v31.04h-7.02v-29.64c0-2.74-0.67-5.23-2.01-7.47c-1.34-2.24-3.13-4.03-5.37-5.37
					c-2.24-1.34-4.73-2.01-7.47-2.01c-2.71,0-5.19,0.67-7.45,2.01c-2.26,1.34-4.05,3.13-5.39,5.37c-1.34,2.24-2.01,4.73-2.01,7.47
					v29.64h-7.02V92.7h7.02v6.92c1.77-2.54,4.08-4.56,6.92-6.07c2.84-1.5,5.93-2.26,9.28-2.26c3.78,0,7.22,0.92,10.33,2.76
					c3.11,1.84,5.58,4.31,7.42,7.42C1542.15,104.59,1543.07,108.03,1543.07,111.81z"/>
				<path class="st0" d="M1592.31,92.7h7.02v50.15h-7.02l-0.25-9.33c-1.64,3.18-3.93,5.74-6.87,7.7c-2.94,1.96-6.45,2.93-10.53,2.93
					c-3.68,0-7.12-0.69-10.33-2.08c-3.21-1.39-6.03-3.3-8.47-5.74c-2.44-2.44-4.35-5.27-5.72-8.47s-2.06-6.65-2.06-10.33
					c0-3.61,0.68-7,2.03-10.18c1.35-3.18,3.23-5.97,5.62-8.37c2.39-2.41,5.17-4.29,8.32-5.64c3.16-1.35,6.54-2.03,10.15-2.03
					c4.18,0,7.82,1,10.93,2.98c3.11,1.99,5.58,4.59,7.42,7.8L1592.31,92.7z M1574.51,137.33c3.58,0,6.65-0.88,9.23-2.63
					c2.57-1.75,4.55-4.12,5.94-7.1c1.39-2.98,2.08-6.25,2.08-9.83c0-3.68-0.7-7-2.11-9.95c-1.4-2.96-3.39-5.31-5.97-7.05
					c-2.57-1.74-5.63-2.61-9.18-2.61c-3.54,0-6.78,0.88-9.7,2.63c-2.93,1.75-5.25,4.12-6.97,7.1c-1.72,2.98-2.58,6.27-2.58,9.88
					c0,3.64,0.89,6.95,2.66,9.9c1.77,2.96,4.12,5.31,7.05,7.05C1567.88,136.46,1571.06,137.33,1574.51,137.33z"/>
				<path class="st0" d="M1607.35,142.85V67.63h7.02v75.22H1607.35z"/>
			</g>
			<g>
				<path class="st0" d="M1068.62,336.58c-4.75,0-9.21-0.95-13.39-2.83c-4.18-1.89-7.85-4.5-11.01-7.82
					c-3.16-3.33-5.63-7.2-7.42-11.61c-1.79-4.41-2.68-9.13-2.68-14.14s0.89-9.73,2.68-14.14c1.79-4.41,4.26-8.28,7.42-11.61
					c3.16-3.33,6.83-5.93,11.01-7.82c4.18-1.89,8.64-2.83,13.39-2.83c5.68,0,10.92,1.32,15.7,3.96c4.78,2.64,8.74,6.15,11.88,10.53
					l-6.22,3.36c-2.47-3.31-5.61-5.94-9.4-7.9c-3.79-1.96-7.78-2.93-11.96-2.93c-3.84,0-7.43,0.78-10.76,2.33
					c-3.33,1.55-6.24,3.69-8.75,6.39c-2.51,2.71-4.46,5.83-5.87,9.38c-1.4,3.54-2.11,7.3-2.11,11.28c0,4.05,0.71,7.84,2.13,11.38
					s3.39,6.67,5.92,9.38c2.52,2.71,5.45,4.82,8.78,6.34c3.33,1.52,6.88,2.28,10.66,2.28c4.35,0,8.38-0.99,12.11-2.98
					c3.73-1.99,6.81-4.59,9.25-7.8l6.22,3.36c-3.14,4.38-7.1,7.88-11.88,10.51C1079.54,335.27,1074.31,336.58,1068.62,336.58z"/>
				<path class="st0" d="M1146.45,285.13h7.02v50.15h-7.02l-0.25-9.33c-1.64,3.18-3.93,5.74-6.87,7.7
					c-2.94,1.96-6.45,2.93-10.53,2.93c-3.68,0-7.12-0.69-10.33-2.08c-3.21-1.39-6.03-3.3-8.47-5.74s-4.35-5.27-5.72-8.48
					c-1.37-3.21-2.06-6.65-2.06-10.33c0-3.61,0.68-7,2.03-10.18c1.35-3.17,3.23-5.97,5.62-8.37c2.39-2.41,5.17-4.29,8.32-5.64
					c3.16-1.35,6.54-2.03,10.15-2.03c4.18,0,7.82,1,10.93,2.98c3.11,1.99,5.58,4.59,7.42,7.8L1146.45,285.13z M1128.65,329.76
					c3.58,0,6.65-0.88,9.23-2.63c2.57-1.76,4.55-4.12,5.94-7.1c1.39-2.98,2.08-6.25,2.08-9.83c0-3.68-0.7-7-2.11-9.95
					c-1.4-2.96-3.39-5.31-5.97-7.04s-5.63-2.61-9.18-2.61c-3.54,0-6.78,0.88-9.7,2.63c-2.93,1.76-5.25,4.12-6.97,7.1
					c-1.72,2.98-2.58,6.27-2.58,9.88c0,3.64,0.89,6.95,2.66,9.9c1.77,2.96,4.12,5.31,7.05,7.04
					C1122.02,328.89,1125.21,329.76,1128.65,329.76z"/>
				<path class="st0" d="M1161.5,335.28v-50.15h7.02v6.92c1.77-2.54,4.08-4.56,6.92-6.07c2.84-1.5,5.93-2.26,9.28-2.26
					c1.94,0,3.81,0.25,5.62,0.75l-2.86,6.97c-1.4-0.43-2.78-0.65-4.11-0.65c-2.71,0-5.19,0.67-7.45,2.01s-4.05,3.13-5.39,5.37
					c-1.34,2.24-2.01,4.73-2.01,7.47v29.64H1161.5z"/>
				<path class="st0" d="M1239.07,304.24v31.04h-7.02v-29.64c0-2.74-0.67-5.23-2.01-7.47c-1.34-2.24-3.13-4.03-5.37-5.37
					c-2.24-1.34-4.73-2.01-7.47-2.01c-2.71,0-5.19,0.67-7.45,2.01s-4.05,3.13-5.39,5.37c-1.34,2.24-2.01,4.73-2.01,7.47v29.64h-7.02
					v-50.15h7.02v6.92c1.77-2.54,4.08-4.56,6.92-6.07c2.84-1.5,5.93-2.26,9.28-2.26c3.78,0,7.22,0.92,10.33,2.76
					c3.11,1.84,5.58,4.31,7.42,7.42C1238.15,297.01,1239.07,300.46,1239.07,304.24z"/>
				<path class="st0" d="M1250.66,276.35c-1.14,0-2.1-0.38-2.88-1.13c-0.79-0.75-1.18-1.7-1.18-2.83s0.39-2.08,1.18-2.83
					c0.79-0.75,1.75-1.13,2.88-1.13c1.1,0,2.05,0.38,2.83,1.13c0.79,0.75,1.18,1.7,1.18,2.83s-0.38,2.08-1.15,2.83
					C1252.74,275.98,1251.79,276.35,1250.66,276.35z M1247.09,285.13h7.02v50.15h-7.02V285.13z"/>
				<path class="st0" d="M1288.37,335.28h-8.93l-18.3-50.3h7.47l15.29,42.07l15.29-42.07h7.47L1288.37,335.28z"/>
				<path class="st0" d="M1354.91,285.13h7.02v50.15h-7.02l-0.25-9.33c-1.64,3.18-3.93,5.74-6.87,7.7
					c-2.94,1.96-6.45,2.93-10.53,2.93c-3.68,0-7.12-0.69-10.33-2.08c-3.21-1.39-6.03-3.3-8.47-5.74s-4.35-5.27-5.72-8.48
					c-1.37-3.21-2.06-6.65-2.06-10.33c0-3.61,0.68-7,2.03-10.18c1.35-3.17,3.23-5.97,5.62-8.37c2.39-2.41,5.17-4.29,8.32-5.64
					c3.16-1.35,6.54-2.03,10.15-2.03c4.18,0,7.82,1,10.93,2.98c3.11,1.99,5.58,4.59,7.42,7.8L1354.91,285.13z M1337.11,329.76
					c3.58,0,6.65-0.88,9.23-2.63c2.57-1.76,4.55-4.12,5.94-7.1c1.39-2.98,2.08-6.25,2.08-9.83c0-3.68-0.7-7-2.11-9.95
					c-1.4-2.96-3.39-5.31-5.97-7.04s-5.63-2.61-9.18-2.61c-3.54,0-6.78,0.88-9.7,2.63c-2.93,1.76-5.25,4.12-6.97,7.1
					c-1.72,2.98-2.58,6.27-2.58,9.88c0,3.64,0.89,6.95,2.66,9.9c1.77,2.96,4.12,5.31,7.05,7.04
					C1330.48,328.89,1333.66,329.76,1337.11,329.76z"/>
				<path class="st0" d="M1369.95,335.28v-75.22h7.02v75.22H1369.95z"/>
				<path class="st0" d="M1407.06,335.28v-10.93c2.17-1.64,4.75-3.67,7.72-6.09c2.97-2.42,6.03-5.05,9.18-7.87
					c3.14-2.83,6.05-5.66,8.73-8.5c2.67-2.84,4.86-5.55,6.54-8.12c1.69-2.57,2.53-4.78,2.53-6.62c0-2.04-0.5-3.9-1.5-5.59
					c-1-1.69-2.33-3.03-3.99-4.04c-1.65-1-3.5-1.5-5.54-1.5c-2.04,0-3.89,0.5-5.57,1.5s-3.01,2.35-4.01,4.04
					c-1,1.69-1.5,3.55-1.5,5.59h-12.24c0-4.41,1.07-8.38,3.21-11.91c2.14-3.53,4.97-6.32,8.5-8.38c3.53-2.06,7.4-3.08,11.61-3.08
					c4.28,0,8.17,1.05,11.68,3.13c3.51,2.09,6.32,4.91,8.42,8.45c2.11,3.54,3.16,7.47,3.16,11.78c0,2.27-0.42,4.56-1.25,6.87
					s-2.01,4.63-3.51,6.97c-1.5,2.34-3.28,4.71-5.32,7.1c-2.04,2.39-4.29,4.83-6.75,7.32c-2.46,2.49-5.04,5.04-7.75,7.65h24.92
					v12.24H1407.06z"/>
				<path class="st0" d="M1488.7,336.58c-4.08,0-7.79-0.95-11.13-2.83c-3.34-1.89-6.23-4.5-8.65-7.85s-4.29-7.21-5.59-11.61
					c-1.3-4.4-1.96-9.1-1.96-14.12s0.65-9.72,1.96-14.12c1.3-4.4,3.17-8.26,5.59-11.61c2.42-3.34,5.31-5.96,8.65-7.85
					c3.34-1.89,7.05-2.83,11.13-2.83c4.08,0,7.79,0.95,11.13,2.83s6.21,4.5,8.6,7.85c2.39,3.34,4.25,7.21,5.57,11.61
					c1.32,4.4,1.98,9.1,1.98,14.12s-0.66,9.72-1.98,14.12c-1.32,4.4-3.18,8.27-5.57,11.61c-2.39,3.34-5.26,5.96-8.6,7.85
					C1496.49,335.63,1492.78,336.58,1488.7,336.58z M1488.7,324.34c3.58,0,6.54-1.14,8.88-3.41s4.08-5.25,5.22-8.93
					c1.14-3.68,1.71-7.62,1.71-11.83c0-4.45-0.6-8.5-1.81-12.16s-2.98-6.58-5.32-8.75c-2.34-2.17-5.23-3.26-8.67-3.26
					c-2.71,0-5.06,0.66-7.05,1.98c-1.99,1.32-3.64,3.12-4.94,5.39c-1.3,2.27-2.27,4.86-2.91,7.75c-0.64,2.89-0.95,5.91-0.95,9.05
					c0,4.18,0.58,8.12,1.73,11.81c1.15,3.69,2.91,6.68,5.26,8.95C1482.21,323.21,1485.16,324.34,1488.7,324.34z"/>
				<path class="st0" d="M1520.99,335.28v-10.93c2.17-1.64,4.75-3.67,7.72-6.09c2.97-2.42,6.03-5.05,9.18-7.87
					c3.14-2.83,6.05-5.66,8.73-8.5c2.67-2.84,4.86-5.55,6.54-8.12c1.69-2.57,2.53-4.78,2.53-6.62c0-2.04-0.5-3.9-1.5-5.59
					c-1-1.69-2.33-3.03-3.99-4.04c-1.65-1-3.5-1.5-5.54-1.5c-2.04,0-3.89,0.5-5.57,1.5s-3.01,2.35-4.01,4.04
					c-1,1.69-1.5,3.55-1.5,5.59h-12.24c0-4.41,1.07-8.38,3.21-11.91c2.14-3.53,4.97-6.32,8.5-8.38c3.53-2.06,7.4-3.08,11.61-3.08
					c4.28,0,8.17,1.05,11.68,3.13c3.51,2.09,6.32,4.91,8.42,8.45c2.11,3.54,3.16,7.47,3.16,11.78c0,2.27-0.42,4.56-1.25,6.87
					s-2.01,4.63-3.51,6.97c-1.5,2.34-3.28,4.71-5.32,7.1c-2.04,2.39-4.29,4.83-6.75,7.32c-2.46,2.49-5.04,5.04-7.75,7.65h24.92
					v12.24H1520.99z"/>
				<path class="st0" d="M1599.87,336.58c-4.51,0-8.59-1.1-12.24-3.28c-3.64-2.19-6.53-5.11-8.65-8.75
					c-2.12-3.64-3.18-7.64-3.18-11.98h12.24c0,2.17,0.53,4.15,1.6,5.94c1.07,1.79,2.5,3.21,4.29,4.26c1.79,1.05,3.77,1.58,5.94,1.58
					s4.15-0.53,5.92-1.58c1.77-1.05,3.19-2.47,4.26-4.26c1.07-1.79,1.6-3.77,1.6-5.94s-0.46-4.17-1.38-5.99
					c-0.92-1.82-2.41-3.28-4.46-4.36c-2.06-1.09-4.77-1.63-8.15-1.63h-18.05l7.42-35.5h34.5v12.24h-24.57l-2.26,11.03l4.96,0.05
					c4.75,0.17,8.94,1.32,12.59,3.46c3.64,2.14,6.49,5.01,8.55,8.6c2.06,3.59,3.08,7.63,3.08,12.11c0,3.28-0.62,6.37-1.86,9.28
					c-1.24,2.91-2.96,5.47-5.17,7.67c-2.21,2.21-4.76,3.94-7.65,5.19C1606.33,335.95,1603.21,336.58,1599.87,336.58z"/>
			</g>
			<g>
				<path class="st0" d="M1101.12,234.25v-70.2h44.03v12.24h-31.79v14.24h25.22v12.24h-25.22v19.26h31.79v12.24H1101.12z"/>
				<path class="st0" d="M1200.11,202.55v31.69h-12.24v-28.48c0-1.97-0.49-3.77-1.45-5.39c-0.97-1.62-2.27-2.91-3.89-3.86
					c-1.62-0.95-3.42-1.43-5.39-1.43s-3.77,0.48-5.39,1.43c-1.62,0.95-2.91,2.24-3.86,3.86c-0.95,1.62-1.43,3.42-1.43,5.39v28.48
					h-12.24l-0.05-50.15h12.24l0.05,4.46c1.7-1.81,3.74-3.23,6.12-4.29c2.37-1.05,4.93-1.58,7.67-1.58c3.64,0,6.97,0.9,9.98,2.68
					c3.01,1.79,5.41,4.18,7.2,7.17C1199.22,195.54,1200.11,198.88,1200.11,202.55z"/>
				<path class="st0" d="M1245.34,184.1h12.24v51.1c0,3.61-0.74,6.9-2.21,9.85c-1.47,2.96-3.48,5.5-6.02,7.62s-5.45,3.76-8.73,4.91
					s-6.72,1.73-10.33,1.73c-3.51,0-6.89-0.72-10.13-2.16c-3.24-1.44-6.11-3.4-8.6-5.89s-4.39-5.32-5.69-8.5l11.18-5.06
					c0.67,1.84,1.68,3.45,3.03,4.84c1.35,1.39,2.92,2.47,4.69,3.26c1.77,0.79,3.61,1.18,5.52,1.18c1.94,0,3.8-0.27,5.59-0.8
					c1.79-0.54,3.4-1.31,4.84-2.33c1.44-1.02,2.57-2.26,3.38-3.71s1.23-3.1,1.23-4.94v-7.07c-1.57,2.21-3.54,4-5.92,5.37
					c-2.37,1.37-5.12,2.06-8.22,2.06c-3.61,0-6.99-0.69-10.13-2.06c-3.14-1.37-5.91-3.27-8.3-5.69c-2.39-2.42-4.26-5.22-5.62-8.4
					c-1.35-3.18-2.03-6.59-2.03-10.23c0-3.64,0.68-7.05,2.03-10.23c1.35-3.18,3.23-5.98,5.62-8.4c2.39-2.42,5.16-4.32,8.3-5.69
					c3.14-1.37,6.52-2.06,10.13-2.06c3.11,0,5.85,0.68,8.22,2.03c2.37,1.35,4.35,3.13,5.92,5.34V184.1z M1231.35,223.77
					c2.57,0,4.86-0.66,6.84-1.98c1.99-1.32,3.55-3.09,4.69-5.32c1.14-2.22,1.71-4.65,1.71-7.3c0-2.67-0.58-5.11-1.73-7.32
					c-1.15-2.21-2.73-3.98-4.71-5.32c-1.99-1.34-4.25-2.01-6.79-2.01c-2.51,0-4.8,0.66-6.87,1.98c-2.07,1.32-3.73,3.08-4.96,5.29
					c-1.24,2.21-1.86,4.66-1.86,7.37c0,2.71,0.62,5.17,1.86,7.37c1.24,2.21,2.89,3.96,4.96,5.27
					C1226.55,223.11,1228.84,223.77,1231.35,223.77z"/>
				<path class="st0" d="M1267.61,234.25v-75.22h12.24v75.22H1267.61z"/>
				<path class="st0" d="M1296.09,177.63c-1.8,0-3.33-0.59-4.56-1.78c-1.24-1.19-1.85-2.68-1.85-4.49c0-1.77,0.62-3.26,1.85-4.46
					c1.24-1.2,2.74-1.81,4.51-1.81c1.77,0,3.27,0.6,4.49,1.81c1.22,1.2,1.83,2.69,1.83,4.46c0,1.81-0.6,3.3-1.81,4.49
					C1299.35,177.04,1297.86,177.63,1296.09,177.63z M1289.87,184.1h12.24v50.15h-12.24V184.1z"/>
				<path class="st0" d="M1326.93,235.15c-2.61-0.17-5.12-0.69-7.55-1.58c-2.42-0.89-4.57-2.1-6.44-3.64
					c-1.87-1.54-3.31-3.38-4.31-5.52l10.33-4.41c0.4,0.67,1.05,1.38,1.96,2.13c0.9,0.75,1.98,1.38,3.23,1.88s2.63,0.75,4.14,0.75
					c1.27,0,2.48-0.18,3.63-0.53c1.15-0.35,2.09-0.89,2.81-1.63c0.72-0.73,1.08-1.69,1.08-2.86c0-1.24-0.43-2.2-1.28-2.88
					c-0.85-0.69-1.92-1.2-3.21-1.55s-2.53-0.68-3.74-0.98c-3.18-0.63-6.13-1.62-8.85-2.96c-2.72-1.34-4.91-3.07-6.57-5.19
					c-1.66-2.12-2.48-4.69-2.48-7.7c0-3.31,0.88-6.17,2.63-8.57c1.75-2.41,4.04-4.26,6.87-5.57c2.82-1.3,5.87-1.96,9.15-1.96
					c3.98,0,7.63,0.83,10.96,2.48c3.33,1.65,5.96,3.99,7.9,7l-9.68,5.72c-0.47-0.8-1.12-1.55-1.96-2.23
					c-0.84-0.69-1.79-1.25-2.86-1.71c-1.07-0.45-2.19-0.71-3.36-0.78c-1.5-0.07-2.88,0.07-4.11,0.4c-1.24,0.33-2.23,0.9-2.98,1.71
					c-0.75,0.8-1.13,1.87-1.13,3.21c0,1.27,0.5,2.22,1.5,2.83c1,0.62,2.21,1.1,3.64,1.43c1.42,0.33,2.78,0.7,4.09,1.1
					c2.94,0.97,5.71,2.16,8.3,3.56c2.59,1.4,4.67,3.13,6.24,5.17c1.57,2.04,2.32,4.48,2.26,7.32c0,3.24-0.97,6.08-2.91,8.5
					c-1.94,2.42-4.44,4.27-7.5,5.54C1333.67,234.91,1330.41,235.42,1326.93,235.15z"/>
				<path class="st0" d="M1399.64,202.55v31.69h-12.24v-28.48c0-1.97-0.49-3.77-1.45-5.39c-0.97-1.62-2.27-2.91-3.89-3.86
					c-1.62-0.95-3.42-1.43-5.39-1.43s-3.77,0.48-5.39,1.43c-1.62,0.95-2.91,2.24-3.86,3.86c-0.95,1.62-1.43,3.42-1.43,5.39v28.48
					h-12.24l-0.05-75.22h12.24l0.05,29.54c1.7-1.81,3.74-3.23,6.12-4.29c2.37-1.05,4.93-1.58,7.67-1.58c3.64,0,6.97,0.9,9.98,2.68
					c3.01,1.79,5.41,4.18,7.2,7.17C1398.75,195.54,1399.64,198.88,1399.64,202.55z"/>
				<path class="st0" d="M1429.73,234.25v-70.2h7.02v63.18h32.24v7.02H1429.73z"/>
				<path class="st0" d="M1519.24,184.1h7.02v50.15h-7.02l-0.25-9.33c-1.64,3.18-3.93,5.74-6.87,7.7
					c-2.94,1.96-6.45,2.93-10.53,2.93c-3.68,0-7.12-0.69-10.33-2.08c-3.21-1.39-6.03-3.3-8.47-5.74c-2.44-2.44-4.35-5.27-5.72-8.47
					s-2.06-6.65-2.06-10.33c0-3.61,0.68-7,2.03-10.18c1.35-3.18,3.23-5.97,5.62-8.37c2.39-2.41,5.17-4.29,8.32-5.64
					c3.16-1.35,6.54-2.03,10.15-2.03c4.18,0,7.82,1,10.93,2.98c3.11,1.99,5.58,4.59,7.42,7.8L1519.24,184.1z M1501.44,228.73
					c3.58,0,6.65-0.88,9.23-2.63c2.57-1.75,4.55-4.12,5.94-7.1c1.39-2.98,2.08-6.25,2.08-9.83c0-3.68-0.7-7-2.11-9.95
					c-1.4-2.96-3.39-5.31-5.97-7.05c-2.57-1.74-5.63-2.61-9.18-2.61c-3.54,0-6.78,0.88-9.7,2.63c-2.93,1.75-5.25,4.12-6.97,7.1
					c-1.72,2.98-2.58,6.27-2.58,9.88c0,3.64,0.89,6.95,2.66,9.9c1.77,2.96,4.12,5.31,7.05,7.05
					C1494.81,227.86,1498,228.73,1501.44,228.73z"/>
				<path class="st0" d="M1578.01,203.21v31.04h-7.02v-29.64c0-2.74-0.67-5.23-2.01-7.47c-1.34-2.24-3.13-4.03-5.37-5.37
					c-2.24-1.34-4.73-2.01-7.47-2.01c-2.71,0-5.19,0.67-7.45,2.01c-2.26,1.34-4.05,3.13-5.39,5.37c-1.34,2.24-2.01,4.73-2.01,7.47
					v29.64h-7.02V184.1h7.02v6.92c1.77-2.54,4.08-4.56,6.92-6.07c2.84-1.5,5.93-2.26,9.28-2.26c3.78,0,7.22,0.92,10.33,2.76
					c3.11,1.84,5.58,4.31,7.42,7.42C1577.09,195.98,1578.01,199.43,1578.01,203.21z"/>
				<path class="st0" d="M1625.9,184.1h7.02v52c0,3.21-0.69,6.22-2.08,9.03c-1.39,2.81-3.26,5.27-5.62,7.4
					c-2.36,2.12-5.04,3.79-8.05,4.99c-3.01,1.2-6.13,1.81-9.38,1.81c-3.48,0-6.84-0.79-10.08-2.38c-3.24-1.59-6.06-3.7-8.45-6.34
					c-2.39-2.64-4.09-5.57-5.09-8.78l6.47-2.96c0.63,2.51,1.83,4.77,3.59,6.79c1.75,2.02,3.83,3.63,6.22,4.81
					c2.39,1.19,4.84,1.78,7.35,1.78c2.31,0,4.54-0.43,6.69-1.28s4.09-2.01,5.82-3.49c1.72-1.47,3.08-3.18,4.09-5.14
					s1.5-4.04,1.5-6.24v-11.08c-1.74,3.14-4.09,5.68-7.05,7.62c-2.96,1.94-6.39,2.91-10.3,2.91c-3.51,0-6.81-0.69-9.9-2.06
					c-3.09-1.37-5.81-3.27-8.15-5.69c-2.34-2.42-4.17-5.22-5.49-8.4c-1.32-3.18-1.98-6.59-1.98-10.23c0-3.64,0.66-7.06,1.98-10.25
					c1.32-3.19,3.15-6,5.49-8.42c2.34-2.42,5.06-4.32,8.15-5.69c3.09-1.37,6.39-2.06,9.9-2.06c3.91,0,7.35,0.96,10.3,2.88
					c2.96,1.92,5.31,4.47,7.05,7.65V184.1z M1608.6,228.73c3.48,0,6.48-0.9,9-2.71c2.52-1.81,4.47-4.19,5.84-7.17
					c1.37-2.98,2.06-6.2,2.06-9.68c0-3.58-0.69-6.84-2.08-9.8c-1.39-2.96-3.35-5.33-5.89-7.12c-2.54-1.79-5.52-2.68-8.93-2.68
					c-3.41,0-6.51,0.88-9.3,2.63c-2.79,1.75-5.01,4.12-6.64,7.1c-1.64,2.98-2.46,6.27-2.46,9.88c0,3.61,0.83,6.9,2.51,9.85
					s3.9,5.32,6.7,7.07C1602.19,227.85,1605.26,228.73,1608.6,228.73z"/>
				<path class="st0" d="M1640.94,215.04V184.1h7.02v29.54c0,2.74,0.67,5.23,2.01,7.47c1.34,2.24,3.13,4.03,5.39,5.37
					c2.26,1.34,4.74,2.01,7.45,2.01c2.74,0,5.22-0.67,7.45-2.01c2.22-1.34,4-3.13,5.34-5.37c1.34-2.24,2.01-4.73,2.01-7.47V184.1
					h7.02l0.05,50.15h-7.02l-0.05-7.02c-1.77,2.54-4.07,4.56-6.9,6.07c-2.83,1.5-5.91,2.26-9.25,2.26c-3.78,0-7.22-0.92-10.33-2.76
					c-3.11-1.84-5.58-4.31-7.42-7.42C1641.86,222.26,1640.94,218.82,1640.94,215.04z"/>
				<path class="st0" d="M1733.92,184.1h7.02v50.15h-7.02l-0.25-9.33c-1.64,3.18-3.93,5.74-6.87,7.7
					c-2.94,1.96-6.45,2.93-10.53,2.93c-3.68,0-7.12-0.69-10.33-2.08c-3.21-1.39-6.03-3.3-8.47-5.74c-2.44-2.44-4.35-5.27-5.72-8.47
					s-2.06-6.65-2.06-10.33c0-3.61,0.68-7,2.03-10.18c1.35-3.18,3.23-5.97,5.62-8.37c2.39-2.41,5.17-4.29,8.32-5.64
					c3.16-1.35,6.54-2.03,10.15-2.03c4.18,0,7.82,1,10.93,2.98c3.11,1.99,5.58,4.59,7.42,7.8L1733.92,184.1z M1716.11,228.73
					c3.58,0,6.65-0.88,9.23-2.63c2.57-1.75,4.55-4.12,5.94-7.1c1.39-2.98,2.08-6.25,2.08-9.83c0-3.68-0.7-7-2.11-9.95
					c-1.4-2.96-3.39-5.31-5.97-7.05c-2.57-1.74-5.63-2.61-9.18-2.61c-3.54,0-6.78,0.88-9.7,2.63c-2.93,1.75-5.25,4.12-6.97,7.1
					c-1.72,2.98-2.58,6.27-2.58,9.88c0,3.64,0.89,6.95,2.66,9.9c1.77,2.96,4.12,5.31,7.05,7.05
					C1709.49,227.86,1712.67,228.73,1716.11,228.73z"/>
				<path class="st0" d="M1788.83,184.1h7.02v52c0,3.21-0.69,6.22-2.08,9.03c-1.39,2.81-3.26,5.27-5.62,7.4
					c-2.36,2.12-5.04,3.79-8.05,4.99c-3.01,1.2-6.13,1.81-9.38,1.81c-3.48,0-6.84-0.79-10.08-2.38c-3.24-1.59-6.06-3.7-8.45-6.34
					c-2.39-2.64-4.09-5.57-5.09-8.78l6.47-2.96c0.63,2.51,1.83,4.77,3.59,6.79c1.75,2.02,3.83,3.63,6.22,4.81
					c2.39,1.19,4.84,1.78,7.35,1.78c2.31,0,4.54-0.43,6.69-1.28s4.09-2.01,5.82-3.49c1.72-1.47,3.08-3.18,4.09-5.14
					s1.5-4.04,1.5-6.24v-11.08c-1.74,3.14-4.09,5.68-7.05,7.62c-2.96,1.94-6.39,2.91-10.3,2.91c-3.51,0-6.81-0.69-9.9-2.06
					c-3.09-1.37-5.81-3.27-8.15-5.69c-2.34-2.42-4.17-5.22-5.49-8.4c-1.32-3.18-1.98-6.59-1.98-10.23c0-3.64,0.66-7.06,1.98-10.25
					c1.32-3.19,3.15-6,5.49-8.42c2.34-2.42,5.06-4.32,8.15-5.69c3.09-1.37,6.39-2.06,9.9-2.06c3.91,0,7.35,0.96,10.3,2.88
					c2.96,1.92,5.31,4.47,7.05,7.65V184.1z M1771.52,228.73c3.48,0,6.48-0.9,9-2.71c2.52-1.81,4.47-4.19,5.84-7.17
					c1.37-2.98,2.06-6.2,2.06-9.68c0-3.58-0.69-6.84-2.08-9.8c-1.39-2.96-3.35-5.33-5.89-7.12c-2.54-1.79-5.52-2.68-8.93-2.68
					c-3.41,0-6.51,0.88-9.3,2.63c-2.79,1.75-5.01,4.12-6.64,7.1c-1.64,2.98-2.46,6.27-2.46,9.88c0,3.61,0.83,6.9,2.51,9.85
					s3.9,5.32,6.7,7.07C1765.11,227.85,1768.18,228.73,1771.52,228.73z"/>
				<path class="st0" d="M1827.94,235.55c-4.61,0-8.82-1.19-12.61-3.56c-3.79-2.37-6.82-5.56-9.08-9.55
					c-2.26-3.99-3.38-8.42-3.38-13.26c0-3.68,0.65-7.11,1.96-10.3c1.3-3.19,3.1-6,5.39-8.42c2.29-2.42,4.96-4.32,8-5.69
					c3.04-1.37,6.29-2.06,9.73-2.06c3.71,0,7.13,0.74,10.25,2.21c3.12,1.47,5.82,3.53,8.07,6.17c2.26,2.64,3.96,5.73,5.12,9.28
					c1.15,3.54,1.63,7.37,1.43,11.48h-42.52c0.4,3.18,1.41,6.02,3.03,8.52s3.69,4.49,6.22,5.94c2.52,1.45,5.32,2.2,8.4,2.23
					c3.34,0,6.36-0.87,9.05-2.61c2.69-1.74,4.86-4.13,6.49-7.17l7.12,1.65c-2.01,4.45-5.03,8.08-9.08,10.91
					C1837.48,234.14,1832.95,235.55,1827.94,235.55z M1810.09,206.16h35.65c-0.23-3.11-1.18-5.96-2.83-8.55
					c-1.66-2.59-3.79-4.66-6.39-6.22c-2.61-1.55-5.47-2.33-8.58-2.33c-3.11,0-5.95,0.76-8.53,2.28c-2.57,1.52-4.68,3.58-6.32,6.17
					C1811.46,200.1,1810.46,202.99,1810.09,206.16z"/>
			</g>
		</g>
	</g>
</g>
<g>
</g>
<g>
</g>
<g>
</g>
<g>
</g>
<g>
</g>
<g>
</g>
<g>
</g>
<g>
</g>
<g>
</g>
<g>
</g>
<g>
</g>
</svg>
