<?xml version="1.0" encoding="utf-8"?>
<!-- Generator: Adobe Illustrator 29.5.0, SVG Export Plug-In . SVG Version: 9.03 Build 0)  -->
<svg version="1.1" id="Layer_1" xmlns="http://www.w3.org/2000/svg" xmlns:xlink="http://www.w3.org/1999/xlink" x="0px" y="0px"
	 viewBox="0 0 1378.17 493.04" style="enable-background:new 0 0 1378.17 493.04;" xml:space="preserve">
<style type="text/css">
	.st0{fill:#091738;}
	.st1{fill:#4C6482;}
	.st2{fill:#1A2F59;}
	.st3{fill:#7E9AB3;}
	.st4{fill:#A4B4C4;}
	.st5{fill:#92A0B1;}
	.st6{fill:#162D54;}
	.st7{fill:none;stroke:#1A2F59;stroke-width:1.9193;stroke-miterlimit:10;}
	.st8{clip-path:url(#SVGID_00000031189883266382518730000007954917164622697857_);}
</style>
<g>
	<path class="st0" d="M233.57,60.25V18.18h5.04v42.07H233.57z"/>
	<path class="st0" d="M245.87,60.25V18.18h13.89c2.9,0,5.62,0.55,8.16,1.64c2.54,1.09,4.77,2.6,6.69,4.54
		c1.92,1.93,3.42,4.17,4.52,6.7c1.09,2.53,1.63,5.25,1.63,8.16s-0.54,5.62-1.63,8.16c-1.09,2.53-2.6,4.77-4.52,6.7
		s-4.15,3.45-6.69,4.54c-2.54,1.09-5.26,1.64-8.16,1.64H245.87z M250.91,55.2h8.85c2.2,0,4.27-0.42,6.2-1.25
		c1.93-0.83,3.62-1.98,5.08-3.44c1.46-1.46,2.6-3.16,3.44-5.09c0.83-1.93,1.24-4,1.24-6.21s-0.42-4.27-1.24-6.21
		c-0.83-1.93-1.98-3.63-3.45-5.09c-1.47-1.46-3.17-2.61-5.08-3.44s-3.98-1.25-6.18-1.25h-8.85V55.2z"/>
	<path class="st0" d="M285.32,60.25V18.18h25.77v5.05h-20.73v11.96h16.98v5.05h-16.98V55.2h20.73v5.05H285.32z"/>
	<path class="st0" d="M330.92,18.18h6.09l15.27,42.07h-5.34l-3.12-8.6h-19.71l-3.09,8.6h-5.37L330.92,18.18z M325.97,46.61h15.99
		l-8.01-21.97L325.97,46.61z"/>
	<path class="st0" d="M357.44,60.25V18.18h5.04V55.2h18.81v5.05H357.44z"/>
	<path class="st1" d="M400.61,60.25V18.18h26.34v7.33h-19.02v8.54h15.09v7.33h-15.09v11.54h19.02v7.33H400.61z"/>
	<path class="st1" d="M432.71,60.25V18.18h7.92L458.36,47V18.18h7.32v42.07h-7.89l-17.76-28.82v28.82H432.71z"/>
	<path class="st1" d="M491.48,61.04c-2.92,0-5.64-0.57-8.15-1.71c-2.51-1.14-4.69-2.72-6.56-4.73c-1.86-2.01-3.31-4.34-4.36-6.97
		c-1.05-2.63-1.58-5.46-1.58-8.46c0-3.17,0.56-6.07,1.7-8.72c1.13-2.64,2.67-4.94,4.63-6.88c1.96-1.94,4.19-3.45,6.67-4.51
		c2.49-1.06,5.08-1.59,7.79-1.59c3.02,0,5.96,0.71,8.81,2.12c2.85,1.41,5.36,3.59,7.54,6.54l-6.54,3.52
		c-1.34-1.64-2.88-2.87-4.6-3.68c-1.73-0.81-3.5-1.22-5.29-1.22c-1.76,0-3.45,0.36-5.06,1.08c-1.61,0.72-3.04,1.74-4.29,3.05
		c-1.25,1.31-2.23,2.85-2.96,4.63c-0.72,1.77-1.08,3.71-1.08,5.82c0,1.98,0.35,3.85,1.05,5.6c0.7,1.75,1.67,3.29,2.9,4.6
		c1.23,1.31,2.65,2.34,4.27,3.08s3.36,1.11,5.22,1.11c1.24,0,2.45-0.2,3.65-0.59c1.19-0.39,2.31-0.96,3.36-1.7
		c1.05-0.74,1.99-1.64,2.82-2.71c0.83-1.06,1.52-2.26,2.08-3.61h-7.65v-6.4h16.26c0.08,3.07-0.4,5.94-1.44,8.63
		c-1.04,2.69-2.51,5.06-4.41,7.12c-1.9,2.06-4.11,3.68-6.63,4.84C497.12,60.45,494.4,61.04,491.48,61.04z"/>
	<path class="st1" d="M517.31,60.25V18.18h7.32v34.74h17.49v7.33H517.31z"/>
	<path class="st1" d="M548.78,60.25V18.18h7.32v42.07H548.78z"/>
	<path class="st1" d="M578.48,61.04c-2.32,0-4.54-0.37-6.67-1.1c-2.13-0.73-4-1.78-5.59-3.16c-1.6-1.37-2.75-3.02-3.45-4.94
		l6.87-2.52c0.28,0.8,0.85,1.53,1.71,2.19c0.86,0.66,1.91,1.19,3.15,1.59c1.24,0.4,2.57,0.6,3.99,0.6c1.46,0,2.82-0.23,4.1-0.68
		c1.27-0.45,2.29-1.08,3.08-1.89c0.78-0.81,1.17-1.76,1.17-2.84c0-1.1-0.41-2.01-1.23-2.72c-0.82-0.71-1.87-1.28-3.15-1.7
		c-1.28-0.42-2.6-0.74-3.96-0.96c-2.98-0.46-5.65-1.17-8.01-2.13c-2.36-0.96-4.23-2.29-5.59-4c-1.37-1.7-2.06-3.91-2.06-6.61
		c0-2.54,0.73-4.77,2.19-6.67c1.46-1.9,3.38-3.39,5.76-4.45c2.38-1.06,4.95-1.59,7.71-1.59c2.3,0,4.52,0.36,6.66,1.08
		c2.14,0.72,4.02,1.77,5.62,3.16c1.61,1.38,2.76,3.05,3.46,4.99l-6.9,2.49c-0.28-0.8-0.85-1.53-1.71-2.19s-1.91-1.19-3.15-1.58
		c-1.24-0.39-2.57-0.59-3.99-0.59c-1.42-0.02-2.77,0.21-4.03,0.68c-1.27,0.47-2.31,1.11-3.1,1.91c-0.8,0.8-1.2,1.72-1.2,2.76
		c0,1.34,0.38,2.35,1.12,3.04s1.75,1.18,3.02,1.49c1.26,0.31,2.66,0.6,4.2,0.86c2.8,0.44,5.39,1.18,7.77,2.22
		c2.38,1.04,4.29,2.43,5.73,4.16c1.44,1.73,2.16,3.85,2.16,6.36c0,2.54-0.72,4.77-2.16,6.69c-1.44,1.91-3.35,3.4-5.73,4.46
		C583.87,60.5,581.28,61.04,578.48,61.04z"/>
	<path class="st1" d="M624.71,18.18h7.32v42.07h-7.32V41.38h-17.4v18.87h-7.32V18.18h7.32v15.87h17.4V18.18z"/>
	<path class="st0" d="M651.95,60.25V18.18h5.04V55.2h18.81v5.05H651.95z"/>
	<path class="st0" d="M695.63,18.18h6.09l15.27,42.07h-5.34l-3.12-8.6h-19.71l-3.09,8.6h-5.37L695.63,18.18z M690.68,46.61h15.99
		l-8.01-21.97L690.68,46.61z"/>
	<path class="st0" d="M722.15,60.25V18.18h5.46l20.97,32.94V18.18h5.04v42.07h-5.43l-21-32.94v32.94H722.15z"/>
	<path class="st0" d="M779.45,61.04c-2.9,0-5.61-0.57-8.12-1.7c-2.51-1.13-4.7-2.71-6.57-4.72c-1.87-2.01-3.33-4.34-4.39-6.97
		c-1.06-2.63-1.59-5.45-1.59-8.46c0-3.11,0.55-5.98,1.67-8.63c1.11-2.64,2.63-4.95,4.56-6.91c1.93-1.96,4.14-3.49,6.63-4.58
		c2.49-1.09,5.12-1.64,7.91-1.64c3.16,0,6.17,0.74,9.03,2.22c2.86,1.48,5.32,3.63,7.38,6.43l-4.5,2.43
		c-1.54-1.96-3.37-3.47-5.48-4.51c-2.11-1.04-4.27-1.56-6.5-1.56c-2.12,0-4.12,0.43-6.01,1.29s-3.56,2.06-5.01,3.61
		c-1.45,1.54-2.58,3.33-3.41,5.35c-0.82,2.02-1.23,4.22-1.23,6.58c0,2.3,0.41,4.47,1.23,6.49c0.82,2.02,1.95,3.8,3.38,5.33
		s3.09,2.73,5,3.59c1.9,0.86,3.93,1.29,6.09,1.29c1.72,0,3.35-0.29,4.91-0.87c1.55-0.58,2.98-1.4,4.29-2.46
		c1.31-1.06,2.43-2.31,3.36-3.76c0.93-1.44,1.64-3.02,2.12-4.75h-10.35v-4.51h16.23c-0.02,2.95-0.58,5.71-1.67,8.29
		s-2.58,4.86-4.47,6.82c-1.89,1.96-4.07,3.5-6.54,4.61C784.91,60.48,782.27,61.04,779.45,61.04z"/>
	<path class="st0" d="M821.66,61.04c-3.36,0-6.28-0.82-8.75-2.46c-2.47-1.64-4.37-3.85-5.7-6.63s-2-5.86-2-9.24V18.18h5.04V42.7
		c0,2.4,0.45,4.62,1.33,6.64c0.89,2.02,2.18,3.64,3.87,4.84s3.75,1.8,6.2,1.8c2.48,0,4.56-0.61,6.24-1.82
		c1.68-1.21,2.96-2.82,3.82-4.84c0.87-2.01,1.31-4.22,1.31-6.63V18.18h5.04V42.7c0,2.54-0.38,4.92-1.14,7.14
		c-0.76,2.21-1.85,4.16-3.28,5.85c-1.43,1.68-3.16,3-5.18,3.94C826.45,60.56,824.18,61.04,821.66,61.04z"/>
	<path class="st0" d="M858.5,18.18h6.09l15.27,42.07h-5.34l-3.12-8.6h-19.71l-3.09,8.6h-5.37L858.5,18.18z M853.55,46.61h15.99
		l-8.01-21.97L853.55,46.61z"/>
	<path class="st0" d="M904.49,61.04c-2.9,0-5.61-0.57-8.12-1.7c-2.51-1.13-4.7-2.71-6.57-4.72c-1.87-2.01-3.33-4.34-4.39-6.97
		c-1.06-2.63-1.59-5.45-1.59-8.46c0-3.11,0.55-5.98,1.67-8.63c1.11-2.64,2.63-4.95,4.56-6.91c1.93-1.96,4.14-3.49,6.63-4.58
		c2.49-1.09,5.12-1.64,7.91-1.64c3.16,0,6.17,0.74,9.03,2.22c2.86,1.48,5.32,3.63,7.38,6.43l-4.5,2.43
		c-1.54-1.96-3.37-3.47-5.48-4.51c-2.11-1.04-4.27-1.56-6.5-1.56c-2.12,0-4.12,0.43-6.01,1.29s-3.56,2.06-5.01,3.61
		c-1.45,1.54-2.58,3.33-3.41,5.35c-0.82,2.02-1.23,4.22-1.23,6.58c0,2.3,0.41,4.47,1.23,6.49c0.82,2.02,1.95,3.8,3.38,5.33
		s3.09,2.73,5,3.59c1.9,0.86,3.93,1.29,6.09,1.29c1.72,0,3.35-0.29,4.91-0.87c1.55-0.58,2.98-1.4,4.29-2.46
		c1.31-1.06,2.43-2.31,3.36-3.76c0.93-1.44,1.64-3.02,2.12-4.75h-10.35v-4.51h16.23c-0.02,2.95-0.58,5.71-1.67,8.29
		s-2.58,4.86-4.47,6.82c-1.89,1.96-4.07,3.5-6.54,4.61C909.95,60.48,907.31,61.04,904.49,61.04z"/>
	<path class="st0" d="M930.26,60.25V18.18h25.77v5.05H935.3v11.96h16.98v5.05H935.3V55.2h20.73v5.05H930.26z"/>
	<path class="st0" d="M994.79,61.04c-2.84,0-5.51-0.57-8.01-1.7c-2.5-1.13-4.7-2.69-6.58-4.69c-1.89-1.99-3.37-4.31-4.44-6.96
		c-1.07-2.64-1.6-5.47-1.6-8.47c0-3.01,0.53-5.83,1.6-8.48c1.07-2.65,2.55-4.96,4.44-6.96c1.89-1.99,4.08-3.56,6.58-4.69
		c2.5-1.13,5.17-1.7,8.01-1.7c3.4,0,6.53,0.79,9.39,2.37c2.86,1.58,5.23,3.69,7.11,6.31l-4.47,2.4c-1.4-1.84-3.17-3.31-5.29-4.4
		c-2.13-1.09-4.38-1.64-6.74-1.64c-2.18,0-4.21,0.44-6.11,1.32c-1.89,0.88-3.54,2.09-4.96,3.64s-2.53,3.33-3.33,5.35
		c-0.8,2.02-1.2,4.18-1.2,6.46c0,2.3,0.4,4.47,1.21,6.49c0.81,2.02,1.93,3.81,3.36,5.35c1.43,1.54,3.09,2.75,4.98,3.62
		c1.89,0.87,3.9,1.31,6.04,1.31c2.44,0,4.71-0.56,6.79-1.67s3.83-2.57,5.24-4.37l4.47,2.43c-1.88,2.62-4.25,4.72-7.11,6.3
		S998.19,61.04,994.79,61.04z"/>
	<path class="st0" d="M1017.05,60.25V18.18h5.04V55.2h18.81v5.05H1017.05z"/>
	<path class="st0" d="M1063.1,61.04c-3.36,0-6.28-0.82-8.75-2.46c-2.47-1.64-4.37-3.85-5.7-6.63s-2-5.86-2-9.24V18.18h5.04V42.7
		c0,2.4,0.45,4.62,1.33,6.64c0.89,2.02,2.18,3.64,3.87,4.84s3.75,1.8,6.2,1.8c2.48,0,4.56-0.61,6.24-1.82
		c1.68-1.21,2.96-2.82,3.82-4.84c0.87-2.01,1.31-4.22,1.31-6.63V18.18h5.04V42.7c0,2.54-0.38,4.92-1.14,7.14
		c-0.76,2.21-1.85,4.16-3.28,5.85c-1.43,1.68-3.16,3-5.18,3.94C1067.89,60.56,1065.62,61.04,1063.1,61.04z"/>
	<path class="st0" d="M1085.87,60.25V18.18h14.49c2.08,0,3.98,0.43,5.69,1.28s3.06,2.09,4.06,3.71c1,1.62,1.5,3.57,1.5,5.83
		c0,1.22-0.21,2.4-0.62,3.53c-0.41,1.13-0.97,2.1-1.68,2.92s-1.51,1.36-2.42,1.64c1.26,0.32,2.33,0.89,3.21,1.7s1.59,1.76,2.15,2.84
		c0.55,1.08,0.94,2.21,1.18,3.4s0.36,2.32,0.36,3.43c0,2.32-0.53,4.37-1.58,6.15s-2.46,3.16-4.21,4.16c-1.76,1-3.7,1.5-5.82,1.5
		H1085.87z M1090.91,35.19h8.97c1.84,0,3.41-0.55,4.72-1.64c1.31-1.09,1.96-2.62,1.96-4.58c0-2.12-0.66-3.71-1.96-4.76
		c-1.31-1.05-2.88-1.58-4.72-1.58h-8.97V35.19z M1090.91,55.81h10.83c1.38,0,2.63-0.36,3.77-1.07c1.13-0.71,2.03-1.69,2.71-2.93
		c0.68-1.24,1.02-2.65,1.02-4.21c0-1.38-0.34-2.69-1.02-3.92c-0.68-1.23-1.59-2.23-2.71-2.99c-1.13-0.76-2.39-1.14-3.77-1.14h-10.83
		V55.81z"/>
</g>
<g>
	<path class="st0" d="M611.95,142.02c-0.21,0-0.39-0.07-0.53-0.21c-0.14-0.14-0.21-0.3-0.21-0.48l0.16-9.07
		c-0.04-4.03-0.16-7.69-0.37-10.98c-2.12,0.35-4.38,0.53-6.78,0.53c-0.32,0-0.56-0.07-0.71-0.21c-0.16-0.14-0.24-0.3-0.24-0.48
		c0-0.18,0.1-0.35,0.29-0.53c0.19-0.18,0.47-0.27,0.82-0.27c2.29,0,4.47-0.18,6.51-0.53c-0.92-11.56-2.91-18.37-5.98-20.42
		c-0.64-0.42-1.29-0.64-1.96-0.64l-0.79,0.11l-5.45,4.67c-0.14,0.11-0.3,0.16-0.48,0.16c-0.21,0-0.4-0.08-0.56-0.24
		c-0.16-0.16-0.24-0.35-0.24-0.56c0-0.14,0.05-0.3,0.16-0.48c1.91-2.58,3.83-4.23,5.77-4.93l4.29-3.61c3.46-2.83,6.76-5.2,9.9-7.11
		c6.21-3.75,11.49-5.62,15.83-5.62c3.35,0,5.86,1.03,7.52,3.08s2.49,4.6,2.49,7.64c0,3.5-1.07,7.27-3.2,11.3
		c-2.14,4.03-5.29,7.66-9.48,10.9c-4.18,3.24-9.38,5.53-15.59,6.87l-0.21,11.19c0,6.22-0.12,9.46-0.37,9.71
		C612.36,141.95,612.17,142.02,611.95,142.02z M613.17,119.37c5.68-1.34,10.48-3.57,14.4-6.68c3.92-3.11,6.89-6.57,8.92-10.37
		c2.03-3.8,3.04-7.29,3.04-10.48c0-2.62-0.71-4.77-2.12-6.47c-1.41-1.7-3.55-2.55-6.41-2.55c-3.95,0-8.84,1.75-14.67,5.25
		c-2.05,1.2-4.24,2.69-6.57,4.46c-1.41,1.06-3.34,2.65-5.77,4.77c0.6,0.11,1.18,0.37,1.75,0.8c2.86,1.91,4.89,7.14,6.09,15.7
		c0.42-12.16,0.97-18.87,1.64-20.1c0.11-0.18,0.22-0.29,0.34-0.35c0.12-0.05,0.26-0.08,0.4-0.08c0.03,0,0.1,0,0.19,0
		c0.09,0,0.22,0.05,0.4,0.16c0.18,0.11,0.32,0.37,0.42,0.8c0,0.28-0.14,0.5-0.42,0.64l-0.16,0.11
		C614.05,97.37,613.56,105.51,613.17,119.37z"/>
	<path class="st0" d="M643.56,120.11c-0.28-0.03-0.52-0.16-0.71-0.37c-0.19-0.21-0.29-0.44-0.29-0.69l0.53-13.58
		c0-0.28,0.11-0.52,0.32-0.72c0.21-0.19,0.46-0.29,0.74-0.29c0.28,0,0.52,0.11,0.71,0.32c0.19,0.21,0.29,0.46,0.29,0.74l-0.32,8.06
		c0.18-0.53,0.56-1.51,1.14-2.94c0.58-1.43,1.29-2.82,2.12-4.16c0.83-1.34,1.65-2.02,2.46-2.02c0.56,0,1.08,0.35,1.54,1.06
		c0.32,0.5,0.63,1.07,0.93,1.72c0.3,0.65,0.64,1.25,1.01,1.78c0.37,0.53,0.82,0.8,1.35,0.8c0.67,0,1.52-0.62,2.54-1.86
		c0.21-0.18,0.41-0.27,0.58-0.27c0.18,0,0.32,0.05,0.42,0.16c0.11,0.11,0.16,0.23,0.16,0.37c0,0.18-0.09,0.37-0.26,0.58
		c-1.77,1.73-3.18,2.6-4.24,2.6c-0.78,0-1.42-0.31-1.93-0.93c-0.51-0.62-0.94-1.26-1.3-1.94c-0.46-0.88-0.88-1.38-1.27-1.49
		c-0.56,0-1.2,0.79-1.91,2.36c-0.71,1.57-1.37,3.26-1.99,5.07c-0.62,1.8-1.09,3.22-1.4,4.24c-0.11,0.28-0.19,0.51-0.24,0.69
		c-0.05,0.18-0.17,0.34-0.34,0.48C644.02,120.04,643.81,120.11,643.56,120.11z"/>
	<path class="st0" d="M665.01,119.85c-2.05,0-3.62-0.62-4.71-1.86c-0.71-0.85-1.06-1.94-1.06-3.29c0-1.17,0.32-2.55,0.95-4.14
		c0.88-2.12,2.22-3.78,4.02-4.99l0.27-0.21c1.2-0.67,2.26-1.01,3.18-1.01c1.41,0,2.19,0.6,2.33,1.8c0,1.24-1.09,2.53-3.28,3.87
		c-1.77,1.03-3.25,1.54-4.45,1.54h-0.26c-0.42,1.13-0.64,2.09-0.64,2.86c0,0.85,0.19,1.53,0.58,2.04c0.39,0.51,0.92,0.88,1.59,1.11
		c0.67,0.23,1.38,0.34,2.12,0.34c1.59,0,3.2-0.47,4.84-1.41c1.64-0.94,3.16-2.04,4.55-3.32c1.39-1.27,2.55-2.47,3.47-3.61
		c0.18-0.21,0.37-0.32,0.58-0.32c0.18,0,0.34,0.08,0.5,0.24c0.16,0.16,0.24,0.34,0.24,0.56c0,0.18-0.05,0.34-0.16,0.48
		c-1.06,1.34-2.38,2.72-3.97,4.14c-1.59,1.41-3.31,2.63-5.16,3.63C668.69,119.34,666.84,119.85,665.01,119.85z M662.79,109.98
		l0.37-0.11c0.88-0.21,1.8-0.6,2.75-1.17c1.52-0.95,2.28-1.61,2.28-1.96c0-0.21-0.18-0.32-0.53-0.32c-0.46,0-1.24,0.28-2.33,0.85
		C664.34,107.98,663.49,108.89,662.79,109.98z"/>
	<path class="st0" d="M682.27,126.85c-0.6,0-1.1-0.2-1.51-0.61c-0.41-0.41-0.61-0.98-0.61-1.72c0-2.09,1.52-4.63,4.55-7.64
		c-0.85-1.52-1.98-2.88-3.39-4.08c-1.59-1.34-2.74-2.81-3.44-4.4c-0.14-0.42-0.21-0.85-0.21-1.27c0-2.02,1.11-3.97,3.34-5.86
		c2.22-1.89,4.43-2.84,6.62-2.84c1.34,0,2.49,0.5,3.44,1.49c0.18,0.21,0.26,0.44,0.26,0.69c0,0.28-0.12,0.53-0.34,0.74
		c-0.23,0.21-0.49,0.32-0.77,0.32c-0.25,0-0.49-0.12-0.74-0.37c-0.49-0.53-1.15-0.8-1.96-0.8c-1.52,0-3.16,0.7-4.92,2.1
		c-1.77,1.4-2.65,2.87-2.65,4.43c0,0.35,0.05,0.69,0.16,1.01c0.6,1.34,1.64,2.65,3.12,3.93c1.23,1.06,2.28,2.23,3.12,3.5
		c3.53-3.08,6.72-5.11,9.58-6.1l0.26-0.05c0.25,0,0.43,0.09,0.56,0.27c0.12,0.18,0.18,0.35,0.18,0.53c0,0.32-0.18,0.57-0.53,0.74
		c-2.75,0.92-5.88,2.94-9.37,6.05c0.25,0.71,0.37,1.47,0.37,2.28c0,0.78-0.12,1.63-0.37,2.55c-0.53,1.77-1.25,3.07-2.17,3.9
		C683.95,126.43,683.08,126.85,682.27,126.85z M682.38,124.78c0.35,0,0.8-0.3,1.35-0.9c0.55-0.6,1-1.52,1.35-2.76
		c0.18-0.6,0.26-1.17,0.26-1.7l-0.11-0.9c-2.29,2.37-3.44,4.19-3.44,5.46C681.79,124.51,681.99,124.78,682.38,124.78z"/>
	<path class="st0" d="M700.11,119.85c-2.05,0-3.62-0.62-4.71-1.86c-0.71-0.85-1.06-1.94-1.06-3.29c0-1.17,0.32-2.55,0.95-4.14
		c0.88-2.12,2.22-3.78,4.02-4.99l0.26-0.21c1.2-0.67,2.26-1.01,3.18-1.01c1.41,0,2.19,0.6,2.33,1.8c0,1.24-1.09,2.53-3.28,3.87
		c-1.77,1.03-3.25,1.54-4.45,1.54h-0.27c-0.42,1.13-0.63,2.09-0.63,2.86c0,0.85,0.19,1.53,0.58,2.04c0.39,0.51,0.92,0.88,1.59,1.11
		c0.67,0.23,1.38,0.34,2.12,0.34c1.59,0,3.2-0.47,4.84-1.41c1.64-0.94,3.16-2.04,4.55-3.32c1.39-1.27,2.55-2.47,3.47-3.61
		c0.18-0.21,0.37-0.32,0.58-0.32c0.18,0,0.34,0.08,0.5,0.24c0.16,0.16,0.24,0.34,0.24,0.56c0,0.18-0.05,0.34-0.16,0.48
		c-1.06,1.34-2.38,2.72-3.97,4.14c-1.59,1.41-3.31,2.63-5.16,3.63S701.95,119.85,700.11,119.85z M697.89,109.98l0.37-0.11
		c0.88-0.21,1.8-0.6,2.75-1.17c1.52-0.95,2.28-1.61,2.28-1.96c0-0.21-0.18-0.32-0.53-0.32c-0.46,0-1.24,0.28-2.33,0.85
		C699.44,107.98,698.6,108.89,697.89,109.98z"/>
	<path class="st0" d="M727.01,119.85h-0.16c-1.8-0.28-2.97-1.53-3.52-3.74c-0.55-2.21-0.87-4.36-0.98-6.44
		c-0.04-0.88-0.1-1.61-0.19-2.17c-0.09-0.57-0.22-0.85-0.4-0.85c-0.64,0.11-1.85,1.91-3.65,5.41c-1.73,3.36-2.72,5.61-2.97,6.74
		c-0.04,0.35-0.16,0.61-0.37,0.77s-0.44,0.24-0.69,0.24c-0.25,0-0.48-0.08-0.69-0.24s-0.32-0.4-0.32-0.72l0.74-13.42
		c0.03-0.25,0.15-0.46,0.34-0.64c0.19-0.18,0.45-0.27,0.77-0.27c0.28,0.04,0.51,0.15,0.69,0.34c0.18,0.19,0.26,0.42,0.26,0.66
		l-0.53,8.91c2.89-6.33,5.17-9.57,6.83-9.71c0.6,0,1.06,0.3,1.38,0.9c0.49,0.99,0.88,2.86,1.17,5.62c0.14,1.73,0.39,3.31,0.74,4.72
		c0.35,1.41,1.01,2.14,1.96,2.17c1.66,0,4.66-2.85,9-8.54c0.18-0.21,0.39-0.32,0.63-0.32c0.18,0,0.34,0.07,0.5,0.21
		c0.16,0.14,0.24,0.34,0.24,0.58c0,0.18-0.04,0.34-0.11,0.48C733.01,116.75,729.45,119.85,727.01,119.85z"/>
	<path class="st0" d="M737.44,148.12l-0.48-0.11c-0.92-0.46-1.48-2.39-1.69-5.78c-0.07-1.63-0.11-3.54-0.11-5.73l0.05-5.83
		c0.14-3.22,0.37-7.5,0.69-12.84c0.35-6.72,0.9-13.9,1.64-21.54c-4.45,0.35-8.45,0.77-12.02,1.25c-3.57,0.48-5.91,0.93-7.04,1.35
		l-0.37,0.05c-0.21,0-0.41-0.05-0.61-0.16c-0.19-0.11-0.32-0.24-0.37-0.4c-0.05-0.16-0.08-0.29-0.08-0.4c0-0.42,0.21-0.76,0.63-1.01
		c1.27-0.5,3.78-0.96,7.52-1.41c3.74-0.44,7.91-0.8,12.5-1.09c1.48-14.36,3.09-21.54,4.82-21.54l0.21,0.05
		c0.78,0.32,1.17,1.79,1.17,4.4c0,3.64-0.69,9.27-2.07,16.87c3.07-0.14,5.86-0.21,8.37-0.21c2.22,0,4.11,0.06,5.67,0.19
		c1.55,0.12,2.56,0.34,3.02,0.64c0.46,0.3,0.69,0.58,0.69,0.82c0,0.14-0.06,0.27-0.19,0.37c-0.12,0.11-0.29,0.16-0.5,0.16
		s-0.44-0.07-0.69-0.21c-0.78-0.35-2.58-0.53-5.4-0.53c-3.04,0-6.8,0.16-11.28,0.48c-1.13,5.98-2.21,11.09-3.23,15.33l-0.05,0.27
		c-0.67,9.87-1.01,18.16-1.01,24.88c0,4.07,0.12,7.2,0.37,9.39h0.16c0.28,0,0.53,0.11,0.74,0.32c0.21,0.21,0.32,0.44,0.32,0.69
		c0,0.28-0.11,0.53-0.32,0.74C738.15,147.94,737.8,148.12,737.44,148.12z M739.08,99.74l0.69-3.66l-0.37,0.05L739.08,99.74z
		 M739.56,94.39l0.53-0.05c1.48-8.35,2.22-13.84,2.22-16.5c0-0.53-0.05-0.8-0.16-0.8C741.7,77.22,740.83,83,739.56,94.39z"/>
	<path class="st0" d="M748.83,126.85c-0.6,0-1.1-0.2-1.51-0.61c-0.41-0.41-0.61-0.98-0.61-1.72c0-2.09,1.52-4.63,4.55-7.64
		c-0.85-1.52-1.98-2.88-3.39-4.08c-1.59-1.34-2.74-2.81-3.44-4.4c-0.14-0.42-0.21-0.85-0.21-1.27c0-2.02,1.11-3.97,3.34-5.86
		c2.22-1.89,4.43-2.84,6.62-2.84c1.34,0,2.49,0.5,3.44,1.49c0.18,0.21,0.26,0.44,0.26,0.69c0,0.28-0.12,0.53-0.34,0.74
		c-0.23,0.21-0.49,0.32-0.77,0.32c-0.25,0-0.49-0.12-0.74-0.37c-0.49-0.53-1.15-0.8-1.96-0.8c-1.52,0-3.16,0.7-4.92,2.1
		c-1.77,1.4-2.65,2.87-2.65,4.43c0,0.35,0.05,0.69,0.16,1.01c0.6,1.34,1.64,2.65,3.12,3.93c1.23,1.06,2.28,2.23,3.12,3.5
		c3.53-3.08,6.72-5.11,9.58-6.1l0.26-0.05c0.25,0,0.43,0.09,0.56,0.27c0.12,0.18,0.18,0.35,0.18,0.53c0,0.32-0.18,0.57-0.53,0.74
		c-2.75,0.92-5.88,2.94-9.37,6.05c0.25,0.71,0.37,1.47,0.37,2.28c0,0.78-0.12,1.63-0.37,2.55c-0.53,1.77-1.25,3.07-2.17,3.9
		C750.5,126.43,749.64,126.85,748.83,126.85z M748.93,124.78c0.35,0,0.8-0.3,1.35-0.9c0.55-0.6,1-1.52,1.35-2.76
		c0.18-0.6,0.26-1.17,0.26-1.7l-0.11-0.9c-2.29,2.37-3.44,4.19-3.44,5.46C748.35,124.51,748.54,124.78,748.93,124.78z"/>
</g>
<path class="st2" d="M185.21,240.84c0,0,0.07-3.35,0.13-5.18c0.15-3.49,0.35-7.33,0.64-11.52l0.05-0.2
	c0.84-3.44,1.7-7.58,2.62-12.41c0.77-0.05,1.51-0.1,2.2-0.15c1.06-0.07,2.05-0.13,2.99-0.15c1.43-0.07,2.74-0.1,3.93-0.1
	c2.28,0,3.73,0.15,4.35,0.45c0.22,0.1,0.39,0.15,0.57,0.15c0.17,0,0.3-0.03,0.39-0.12c0.1-0.07,0.17-0.17,0.17-0.3
	c0-0.2-0.2-0.42-0.57-0.67c-0.37-0.22-1.19-0.4-2.45-0.52c-1.26-0.1-2.77-0.15-4.57-0.15c-0.49,0-0.99,0-1.48,0.03
	c-0.99,0-2.03,0.02-3.12,0.07c-0.69,0.02-1.44,0.05-2.18,0.07c1.11-6.15,1.68-10.7,1.68-13.65c0-2.11-0.32-3.3-0.94-3.54l-0.17-0.05
	c-1.41,0-2.72,5.8-3.91,17.41c-3.71,0.25-7.07,0.52-10.11,0.89c-3.02,0.35-5.04,0.74-6.08,1.14c-0.35,0.2-0.52,0.47-0.52,0.81
	c0,0.07,0.03,0.17,0.07,0.32c0.05,0.13,0.15,0.22,0.3,0.32c0.15,0.07,0.32,0.12,0.49,0.12l0.29-0.05c0.92-0.35,2.82-0.7,5.71-1.09
	c2.87-0.4,6.11-0.72,9.72-1.02c-0.59,6.19-1.04,11.99-1.34,17.44c-0.15,2.45-0.27,4.63-0.37,6.54c-0.07,1.44-0.12,2.73-0.17,3.84
	v1.02c0.35,0.17,0.74,0.27,1.16,0.27C184.89,240.89,185.21,240.84,185.21,240.84 M186.67,214.58l0.25-2.92l0.32-0.05L186.67,214.58z
	 M187.49,210.19l-0.42,0.05c1.02-9.21,1.71-13.9,2.08-14.04c0.1,0,0.15,0.22,0.15,0.64C189.29,199,188.67,203.46,187.49,210.19"/>
<path class="st2" d="M212.21,222.51c-0.12-0.1-0.25-0.17-0.39-0.17c-0.2,0-0.37,0.07-0.52,0.22c-3.46,4.36-6.16,6.52-8.09,6.52
	c-0.77,0-1.44-0.3-1.95-0.89c-0.52-0.59-0.96-1.34-1.34-2.23c-0.35-0.89-0.69-1.81-0.99-2.8c-0.4-1.29-0.79-2.4-1.26-3.34
	c-0.45-0.94-1.06-1.41-1.83-1.41c-1.48,0.2-3.19,2.97-5.1,8.33l-0.1,0.17l0.91-7.98l0.47-1.56c0.67-2.2,1.29-4.26,1.8-6.12
	c0.12-0.42,0.22-0.84,0.35-1.24c1.54-5.65,2.3-9.61,2.3-11.87c0-1.31-0.35-1.96-0.99-1.96c-0.92,0.2-1.81,1.93-2.65,5.2
	c-0.64,2.53-1.24,5.43-1.78,8.7c-0.07,0.42-0.15,0.87-0.22,1.31c-0.07,0.54-0.17,1.11-0.25,1.68c-0.64,4.53-1.16,8.77-1.56,12.76
	c-0.37,3.96-0.57,6.64-0.57,7.98c0,0.22,0.07,0.42,0.25,0.59c0.17,0.17,0.37,0.27,0.59,0.27c0.25,0,0.42-0.1,0.59-0.27
	c0.15-0.17,0.22-0.37,0.22-0.64c0-0.52,0.22-1.51,0.62-2.97c0.42-1.48,0.94-3.05,1.53-4.68c0.59-1.64,1.19-3.07,1.81-4.28
	c0.59-1.22,1.09-1.83,1.46-1.83c0.37,0.12,0.69,0.52,0.99,1.19c0.3,0.67,0.59,1.44,0.89,2.28c0.35,1.07,0.74,2.13,1.24,3.2
	c1.11,2.58,2.55,3.86,4.33,3.86c2.4,0,5.49-2.4,9.3-7.18c0.1-0.1,0.12-0.25,0.12-0.37C212.41,222.78,212.36,222.63,212.21,222.51
	 M193.15,207.92c0.69-4.83,1.41-8.08,2.13-9.73c-0.1,1.88-0.89,5.6-2.35,11.12L193.15,207.92z"/>
<path class="st3" d="M465.58,398.9c-0.48-0.28-1.05-0.71-1.71-1.28c-0.67-0.57-1.14-1.09-1.43-1.57c-0.09-0.19-0.19-0.43-0.28-0.71
	c-0.09-0.28-0.14-0.71-0.14-1.28v-2.57v-3.71c0-0.86,0.16-1.55,0.5-2.07c0.33-0.52,0.83-1.07,1.49-1.64
	c0.86-0.86,1.85-1.66,2.99-2.42c1.14-0.76,2.85-1.71,5.13-2.85l3.85-2l6.12-6.14c5.42-5.42,10.99-11.34,16.74-17.77
	c5.75-6.42,12.85-14.72,21.3-24.9c8.93-10.75,17.76-21.84,26.5-33.25c8.74-11.42,15.76-21.07,21.09-28.97
	c10.26-15.12,16.76-26.73,19.51-34.82c0.57-1.71,0.97-3.16,1.21-4.35c0.24-1.19,0.36-2.5,0.36-3.92c0-5.99-2.14-9.85-6.41-11.56
	c-0.28-0.09-0.57-0.24-0.85-0.43c-0.86-0.38-1.62-0.67-2.28-0.86c-1.52-0.28-3.14-0.43-4.85-0.43c-5.7,0-12.73,1.71-21.08,5.14
	c-10.92,4.57-22.46,11.37-34.62,20.41c-22.22,17.03-35.81,31.87-40.74,44.53c-0.38,1.14-0.57,2.05-0.57,2.71
	c0,0.76,0.19,1.43,0.57,2c0.85,1.24,1.54,2.76,2.07,4.57c0.52,1.81,0.78,3.38,0.78,4.71c0,0.57-0.03,0.98-0.07,1.21
	c-0.05,0.24-0.21,0.45-0.5,0.64c-0.38,0.38-0.81,0.57-1.28,0.57c-0.57,0-1.24-0.28-1.99-0.85c-1.9-1.24-3.28-2.57-4.13-4
	c-0.85-1.43-1.42-3.52-1.71-6.28c-0.28-1.99-0.43-3.75-0.43-5.28c0-1.43,0.14-2.76,0.43-3.99c1.43-5.61,6.36-12.8,14.82-21.55
	c10.54-10.56,22.63-20.19,36.26-28.9c13.63-8.71,26.33-14.91,38.11-18.63c5.7-1.71,10.69-2.57,14.96-2.57
	c0.76,0,1.52,0.05,2.28,0.14c1.52,0.1,2.78,0.28,3.78,0.57c1,0.28,2.01,0.67,3.06,1.14c3.71,1.9,6.13,5.09,7.26,9.56
	c0.38,1.24,0.59,3.09,0.64,5.56c0.05,2.47-0.03,4.61-0.22,6.42c-1.14,10.56-6.65,23.59-16.52,39.1
	c-16.05,24.55-41.17,56.18-75.36,94.91c-1.14,1.24-2.23,2.42-3.27,3.57c-1.14,1.24-2.07,2.28-2.78,3.14
	c-0.71,0.85-1.12,1.33-1.21,1.43c-0.09,0.28-0.14,0.52-0.14,0.71v0.28c0,0.19,0.14,0.28,0.43,0.28c0.09,0,0.73-0.14,1.92-0.43
	c1.19-0.29,2.63-0.62,4.35-1c11.49-2.95,22.22-4.9,32.19-5.85c5.32-0.38,10.16-0.57,14.53-0.57c8.45,0,15.1,0.76,19.94,2.28
	c0.95,0.29,1.78,0.65,2.49,1.07c0.71,0.43,1.35,0.98,1.92,1.64c1.23,1.24,1.85,2.43,1.85,3.57c0,0.28-0.05,0.52-0.14,0.71
	c-0.1,0.19-0.24,0.33-0.43,0.43h-0.5c-0.14,0-0.31-0.05-0.5-0.14c-0.19-0.09-0.43-0.28-0.71-0.57c-0.95-0.57-1.85-1.02-2.71-1.35
	c-0.85-0.33-1.85-0.64-2.99-0.93c-0.67-0.09-1.28-0.19-1.85-0.28c-0.57-0.09-1.33-0.14-2.28-0.14h-4.13c-3.99,0-7.07,0.14-9.26,0.43
	c-17.76,1.81-34.66,6.33-50.71,13.56c-3.23,1.43-6.25,2.9-9.05,4.42c-2.8,1.52-6.34,3.57-10.61,6.14c-2.85,1.71-4.99,2.97-6.41,3.78
	c-1.42,0.81-2.35,1.28-2.78,1.43c-0.43,0.14-0.79,0.21-1.07,0.21C466.01,399.04,465.77,399,465.58,398.9"/>
<path class="st3" d="M583.77,398.33c-0.28,0-0.67-0.09-1.14-0.28c-0.48-0.19-0.95-0.38-1.42-0.57c-1.05-0.47-1.85-1.07-2.42-1.78
	c-0.57-0.71-1.09-1.69-1.57-2.93c-0.28-0.76-0.48-1.38-0.57-1.86c-0.1-0.48-0.14-1.19-0.14-2.14c0-0.57,0.02-1.02,0.07-1.36
	c0.05-0.33,0.09-0.59,0.14-0.78c0.05-0.19,0.16-0.33,0.36-0.43c0.19-0.28,0.33-0.43,0.43-0.43h0.28c0.09,0,0.24,0.05,0.43,0.14
	c0.85,0.38,1.47,1.33,1.85,2.85l0.28,1.14c0.09,0.29,0.15,0.48,0.15,0.58c0.38,0.66,1.09,1,2.13,1c1.52,0,3.71-0.62,6.56-1.85
	c4.84-2.19,10.26-5.61,16.24-10.28c9.69-7.8,19.47-18.45,29.35-31.97c9.02-12.37,15.62-23.31,19.8-32.82
	c2.37-5.61,3.56-10.23,3.56-13.84c0-2-0.33-3.71-1-5.14c-0.48-1.05-1.24-2.07-2.28-3.07c-1.05-1-2.19-1.78-3.42-2.36
	c-2.95-1.33-6.22-1.99-9.83-1.99c-6.27,0-13.68,1.99-22.22,5.99c-4.94,2.28-11.73,6.56-20.37,12.84c-3.51,2.48-6.13,4.26-7.84,5.35
	c-1.71,1.09-3.13,1.92-4.27,2.5c-0.95,0.48-1.66,0.79-2.14,0.93c-0.48,0.14-1.09,0.21-1.85,0.21h-1.71
	c-0.38-0.09-0.81-0.24-1.28-0.43c-1.04-0.48-1.85-1.07-2.42-1.78c-0.57-0.71-1.09-1.88-1.56-3.5c-0.67-1.8-1-3.66-1-5.56v-1.29
	c0.76-8.85,4.99-21.88,12.68-39.1c5.89-12.94,12.11-25.16,18.66-36.68c1.14-2,1.95-3.45,2.42-4.35c0.48-0.9,0.71-1.5,0.71-1.78
	v-0.14c-0.1-0.28-0.38-0.43-0.86-0.43c-0.19,0-0.95,0.15-2.28,0.43c-1.33,0.28-2.83,0.64-4.49,1.07c-1.66,0.43-3.16,0.81-4.49,1.14
	c-1.33,0.33-2.14,0.55-2.42,0.64c-0.19,0.09-0.4,0.26-0.64,0.5c-0.24,0.24-0.45,0.5-0.64,0.79c-0.67,1.05-1.47,1.57-2.42,1.57
	c-0.66,0-1.49-0.05-2.49-0.15c-1-0.09-1.9-0.19-2.71-0.28c-0.81-0.09-1.31-0.14-1.5-0.14c-0.85-0.48-1.28-1.14-1.28-2
	c0-0.67,0.24-1.47,0.71-2.42c0.38-0.86,0.85-1.45,1.43-1.78c0.57-0.33,1.61-0.69,3.13-1.07c1.33-0.28,2.25-0.48,2.78-0.57
	c0.52-0.09,0.93-0.14,1.21-0.14c0.28,0,0.52,0.05,0.71,0.14c0.48,0,0.95,0.1,1.43,0.29l1.14,0.57l3.28-0.71
	c3.71-0.66,6.79-1.24,9.26-1.71c2.47-0.48,3.89-0.86,4.27-1.14c0.19-0.1,0.45-0.31,0.78-0.64c0.33-0.33,0.81-0.98,1.43-1.93
	c0.62-0.95,1.45-2.28,2.49-4c0.38-0.57,0.83-1.19,1.35-1.86c0.52-0.66,1.02-1.24,1.5-1.71c0.38-0.48,0.69-0.81,0.93-1
	c0.24-0.19,0.45-0.33,0.64-0.43c0.19-0.09,0.43-0.14,0.71-0.14c1.04,0,1.92,0.43,2.63,1.28c0.71,0.86,1.45,2.33,2.21,4.43
	c0.09,0.19,0.14,0.38,0.14,0.57c0.38,0.86,0.74,1.48,1.07,1.86c0.33,0.38,0.83,0.57,1.5,0.57c0.76,0,1.94-0.15,3.56-0.43
	c0.19,0,0.43-0.05,0.71-0.14c12.34-2.09,24.55-3.47,36.61-4.14c3.04-0.19,9.21-0.29,18.52-0.29h2.99c1.23-0.09,2.33-0.14,3.28-0.14
	c1.04,0,1.94,0.05,2.71,0.14h3.63c0.9,0,1.56,0.05,1.99,0.15c0.43,0.1,0.73,0.21,0.92,0.36c0.19,0.14,0.38,0.36,0.57,0.64
	c0.09,0,0.14,0.05,0.14,0.14c0.19,0.19,0.33,0.38,0.43,0.57c0.09,0.19,0.14,0.43,0.14,0.71c0,0.19-0.05,0.43-0.14,0.71
	c0,0.57-0.1,1.07-0.29,1.5s-0.43,0.98-0.71,1.64c-0.57,0.95-1.14,1.74-1.71,2.36c-0.57,0.62-1.04,0.92-1.42,0.92
	c-0.1,0-0.29-0.09-0.57-0.28c-0.28-0.19-0.57-0.43-0.85-0.71c-1.05-1.33-2.85-2.33-5.41-3c-4.18-1.04-10.12-1.57-17.81-1.57
	c-1.81,0-3.71,0.05-5.7,0.14c-10.45,0.28-21.8,1.28-34.05,3c-0.19,0.09-0.38,0.14-0.57,0.14c-2.47,0.28-4.23,0.55-5.27,0.78
	c-1.04,0.24-1.73,0.55-2.07,0.93c-0.33,0.38-0.55,0.9-0.64,1.57v0.29c-0.09,0.48-0.26,1.05-0.5,1.71c-0.24,0.67-0.5,1.29-0.79,1.86
	c-0.28,0.48-1.19,1.95-2.71,4.42c-1.52,2.48-3.32,5.23-5.41,8.28c-10.64,15.98-18.8,29.16-24.5,39.53
	c-3.51,6.47-6.53,12.56-9.05,18.27c-2.52,5.71-4.11,10.18-4.77,13.41c-0.1,0.48-0.14,0.86-0.14,1.14c0,0.76,0.28,1.14,0.85,1.14
	c1.99,0,7.64-2.71,16.95-8.13c3.8-2.29,6.93-4.07,9.4-5.35c2.47-1.28,4.79-2.4,6.98-3.35c6.55-2.95,12.77-4.94,18.66-5.99
	c2.09-0.28,4.41-0.43,6.98-0.43c2.57,0,4.61,0.14,6.13,0.43c6.65,1.43,11.16,5.28,13.53,11.56c0.66,1.53,1.12,2.95,1.35,4.28
	c0.24,1.33,0.36,3.05,0.36,5.14c0,5.23-1,10.56-2.99,15.98c-3.51,9.71-9.19,20.08-17.03,31.11c-7.84,11.04-16.45,20.65-25.86,28.83
	c-8.17,7.33-15.81,12.13-22.94,14.41c-2.85,0.86-5.32,1.28-7.41,1.28C585.29,398.47,584.53,398.43,583.77,398.33"/>
<polygon class="st2" points="254.62,245.22 254.62,327.29 204.14,245.22 181.6,245.22 181.6,365.02 202.44,365.02 202.44,282.95 
	253.02,365.02 275.49,365.02 275.49,245.22 "/>
<polygon class="st2" points="301.05,266.1 301.05,290.41 344.02,290.41 344.02,311.28 301.05,311.28 301.05,344.14 363.52,344.14 
	363.52,365.02 280.21,365.02 280.21,245.2 363.52,245.2 363.52,266.1 "/>
<path class="st2" d="M450.07,352.25c-2.36-2.53-4.53-5.22-6.51-8.11h-54.49V245.2h-20.84v119.82l96.67-1.09
	C459.42,360.81,454.43,356.91,450.07,352.25"/>
<path class="st2" d="M495.07,346.36c-5.24,0-10.15-1.06-14.73-3.21c-4.58-2.13-8.61-5.11-12.08-8.89
	c-3.49-3.78-6.21-8.18-8.17-13.15c-1.96-4.97-2.95-10.28-2.95-16.01c0-5.63,0.97-10.95,2.9-15.96c1.51-3.9,3.49-7.42,5.97-10.59
	c0.05-1.44,0.24-2.84,0.52-4.16c1.67-6.6,6.92-14.33,16.02-23.79c2.53-2.53,5.15-5.01,7.84-7.42c-6.35,0.49-12.41,2.06-18.12,4.63
	c-7.13,3.22-13.38,7.68-18.76,13.36c-5.38,5.67-9.58,12.27-12.65,19.76c-3.04,7.5-4.56,15.56-4.56,24.16
	c0,8.56,1.51,16.6,4.56,24.09c3.07,7.52,7.27,14.12,12.65,19.81c5.38,5.72,11.64,10.19,18.76,13.41c2.71,1.23,5.5,2.22,8.38,2.98
	c4.74-4.8,9.65-10.09,14.68-15.67c0.99-1.11,2.03-2.3,3.11-3.52C497.34,346.32,496.21,346.36,495.07,346.36 M528.75,335.37
	c-7.41,8.79-15.36,18.01-23.86,27.66c6.35-1.44,12.51-2.6,18.43-3.43c7.48-4.37,13.71-10.05,18.74-17L528.75,335.37z M521.82,249.71
	c-2.95-1.63-5.97-2.95-9.11-3.97c-7.72,6.43-14.09,12.51-19.05,18.18c0.47-0.05,0.94-0.05,1.42-0.05c5.59,0,10.86,1.25,15.86,3.76
	c4.98,2.51,9.16,5.84,12.51,10l18.62-10C536.71,260.16,529.96,254.18,521.82,249.71"/>
<path class="st4" d="M84.6,343.41H11.87c0.26,20.11,8.47,38.29,21.62,51.55l51.11-51.21V343.41z"/>
<path class="st5" d="M84.6,343.76l-51.11,51.21c13.11,13.22,31.14,21.55,51.11,22V343.76z"/>
<path class="st6" d="M137.26,394.96l-51.11-51.21v73.21C106.12,416.52,124.15,408.19,137.26,394.96"/>
<path class="st2" d="M158.88,343.41H86.15v0.35l51.11,51.21C150.41,381.7,158.62,363.52,158.88,343.41"/>
<path class="st5" d="M33.49,214.56l51.11,51.21v-73.21C64.63,193.01,46.6,201.33,33.49,214.56"/>
<path class="st4" d="M11.87,266.11H84.6v-0.35l-51.11-51.21C20.34,227.82,12.13,246,11.87,266.11"/>
<path class="st6" d="M62.47,320.04l-51.11-51.21v73.21C31.33,341.6,49.36,333.27,62.47,320.04"/>
<path class="st2" d="M84.09,268.49H11.36v0.35l51.11,51.21C75.62,306.78,83.83,288.6,84.09,268.49"/>
<path class="st2" d="M158.19,192.56H85.46v0.35l51.11,51.21C149.72,230.84,157.92,212.66,158.19,192.56"/>
<path class="st6" d="M136.57,244.11L85.46,192.9v73.21C105.43,265.66,123.46,257.33,136.57,244.11"/>
<path class="st4" d="M137.26,289.99l-51.11,51.21v-73.21C106.12,268.44,124.15,276.76,137.26,289.99"/>
<path class="st5" d="M158.88,341.54H86.15v-0.35l51.11-51.21C150.41,303.25,158.62,321.43,158.88,341.54"/>
<line class="st7" x1="596.97" y1="481.24" x2="800.3" y2="128.29"/>
<g>
	<defs>
		<polygon id="SVGID_1_" points="619.35,490.01 833.95,117.5 1317.74,117.5 1457.39,277.79 1473.65,528.38 		"/>
	</defs>
	<clipPath id="SVGID_00000060709189224650900600000014581939714369657790_">
		<use xlink:href="#SVGID_1_"  style="overflow:visible;"/>
	</clipPath>
	<g style="clip-path:url(#SVGID_00000060709189224650900600000014581939714369657790_);">
		<path class="st2" d="M785.23,256.05c-3.12,0-5.99-0.78-8.59-2.34c-2.61-1.56-4.69-3.64-6.25-6.25c-1.56-2.61-2.34-5.5-2.34-8.66
			c0-1.63,0.19-3.14,0.58-4.54c0.38-1.4,0.98-2.81,1.8-4.23l13.69-23.79H794l-9.19,15.89c1.89-0.14,3.7,0.02,5.45,0.49
			c1.75,0.47,3.37,1.2,4.86,2.2c1.49,1,2.79,2.21,3.91,3.63c1.12,1.42,1.99,3,2.6,4.75c0.62,1.75,0.93,3.61,0.93,5.59
			c0,2.38-0.45,4.6-1.35,6.67c-0.9,2.07-2.14,3.91-3.72,5.5s-3.42,2.84-5.52,3.74C789.87,255.6,787.63,256.05,785.23,256.05z
			 M785.23,247.53c1.7,0,3.21-0.41,4.54-1.24s2.37-1.9,3.13-3.23c0.76-1.33,1.13-2.74,1.13-4.23c0-1.61-0.38-3.07-1.15-4.4
			s-1.81-2.39-3.13-3.18c-1.32-0.79-2.8-1.19-4.45-1.19c-1.7,0-3.21,0.41-4.52,1.24c-1.32,0.83-2.35,1.9-3.09,3.23
			c-0.75,1.33-1.12,2.76-1.12,4.3c0,1.65,0.41,3.13,1.22,4.44c0.82,1.3,1.88,2.34,3.2,3.11S783.71,247.53,785.23,247.53z"/>
		<path class="st2" d="M816.61,216.49h-3.95v15.4h-4.97v-15.4h-3.01v-4.97h3.01v-6.39h4.97v6.39h3.95V216.49z"/>
		<path class="st2" d="M838.11,219.01v12.87h-4.97v-11.57c0-0.8-0.2-1.53-0.59-2.19c-0.39-0.66-0.92-1.18-1.58-1.57
			c-0.66-0.39-1.39-0.58-2.19-0.58c-0.8,0-1.53,0.19-2.19,0.58c-0.66,0.39-1.18,0.91-1.57,1.57c-0.39,0.66-0.58,1.39-0.58,2.19
			v11.57h-4.97l-0.02-30.55h4.97l0.02,11.99c0.69-0.73,1.52-1.31,2.48-1.74s2-0.64,3.12-0.64c1.48,0,2.83,0.36,4.05,1.09
			s2.2,1.7,2.92,2.91C837.75,216.17,838.11,217.52,838.11,219.01z"/>
		<path class="st2" d="M858.49,255.15v-48.9h5.31l25.81,40.06v-40.06h4.89v48.9h-5.27l-25.85-40.06v40.06H858.49z"/>
		<path class="st2" d="M917.87,206.24h6.08l17.81,48.9h-5.2l-3.81-10.48H909.1l-3.81,10.48h-5.21L917.87,206.24z M910.88,239.78
			h20.05l-10.02-27.52L910.88,239.78z"/>
		<path class="st2" d="M984.34,206.24v4.89h-16.77v44.01h-4.89v-44.01h-16.73v-4.89H984.34z"/>
		<path class="st2" d="M990.97,255.15v-48.9h4.89v48.9H990.97z"/>
		<path class="st2" d="M1026.6,256.05c-3.31,0-6.42-0.66-9.33-1.97c-2.91-1.32-5.47-3.14-7.68-5.47c-2.21-2.33-3.95-5.02-5.2-8.09
			c-1.26-3.06-1.89-6.34-1.89-9.83c0-3.49,0.63-6.77,1.89-9.83c1.26-3.06,2.99-5.76,5.2-8.09c2.21-2.33,4.77-4.15,7.68-5.47
			c2.91-1.32,6.02-1.97,9.33-1.97c3.33,0,6.45,0.66,9.36,1.97c2.91,1.32,5.47,3.14,7.68,5.47c2.21,2.33,3.94,5.02,5.19,8.09
			c1.25,3.06,1.87,6.34,1.87,9.83c0,3.49-0.62,6.77-1.87,9.83c-1.25,3.06-2.98,5.76-5.19,8.09c-2.21,2.33-4.77,4.15-7.68,5.47
			C1033.05,255.4,1029.93,256.05,1026.6,256.05z M1026.6,251.16c2.68,0,5.17-0.54,7.49-1.62c2.32-1.08,4.35-2.57,6.11-4.45
			c1.76-1.89,3.13-4.06,4.12-6.53c0.99-2.47,1.48-5.09,1.48-7.86c0-2.79-0.5-5.43-1.5-7.91c-1-2.48-2.38-4.66-4.14-6.53
			c-1.76-1.87-3.8-3.35-6.11-4.42c-2.32-1.07-4.8-1.61-7.46-1.61c-2.68,0-5.18,0.54-7.49,1.62c-2.32,1.08-4.35,2.57-6.11,4.45
			c-1.76,1.89-3.13,4.06-4.12,6.53c-0.99,2.47-1.48,5.09-1.48,7.86c0,2.82,0.5,5.46,1.5,7.93c1,2.47,2.38,4.65,4.14,6.53
			c1.76,1.89,3.8,3.36,6.11,4.42C1021.46,250.63,1023.95,251.16,1026.6,251.16z"/>
		<path class="st2" d="M1056.29,255.15v-48.9h5.31l25.81,40.06v-40.06h4.89v48.9h-5.27l-25.85-40.06v40.06H1056.29z"/>
		<path class="st2" d="M1115.67,206.24h6.08l17.81,48.9h-5.2l-3.81-10.48h-23.65l-3.81,10.48h-5.21L1115.67,206.24z M1108.69,239.78
			h20.05l-10.02-27.52L1108.69,239.78z"/>
		<path class="st2" d="M1145.15,255.15v-48.9h4.89v44.01h22.46v4.89H1145.15z"/>
	</g>
	<g style="clip-path:url(#SVGID_00000060709189224650900600000014581939714369657790_);">
		<path class="st2" d="M718.15,381.84c-3.31,0-6.42-0.66-9.33-1.97s-5.47-3.13-7.67-5.45c-2.2-2.32-3.92-5.01-5.17-8.09
			c-1.25-3.07-1.87-6.36-1.87-9.85s0.62-6.78,1.87-9.85c1.25-3.07,2.97-5.77,5.17-8.09c2.2-2.32,4.75-4.13,7.67-5.45
			s6.02-1.97,9.33-1.97c3.96,0,7.6,0.92,10.93,2.76c3.33,1.84,6.09,4.29,8.28,7.33l-4.33,2.34c-1.72-2.31-3.91-4.14-6.55-5.5
			c-2.64-1.36-5.42-2.04-8.33-2.04c-2.68,0-5.17,0.54-7.49,1.62c-2.32,1.08-4.35,2.57-6.09,4.45c-1.75,1.89-3.11,4.06-4.09,6.53
			c-0.98,2.47-1.47,5.09-1.47,7.86c0,2.82,0.49,5.46,1.48,7.93c0.99,2.47,2.36,4.65,4.12,6.53c1.76,1.89,3.8,3.36,6.11,4.42
			c2.32,1.06,4.79,1.59,7.42,1.59c3.03,0,5.84-0.69,8.44-2.08c2.6-1.38,4.74-3.2,6.44-5.43l4.33,2.34
			c-2.19,3.05-4.95,5.49-8.28,7.32C725.76,380.93,722.11,381.84,718.15,381.84z"/>
		<path class="st2" d="M760.03,332.04h6.08l17.81,48.9h-5.2l-3.81-10.48h-23.65l-3.81,10.48h-5.21L760.03,332.04z M753.05,365.57
			h20.05l-10.02-27.52L753.05,365.57z"/>
		<path class="st2" d="M789.51,380.94v-48.9h16.59c2.61,0,4.96,0.63,7.06,1.9c2.1,1.27,3.76,2.98,4.99,5.13
			c1.23,2.15,1.85,4.57,1.85,7.25c0,2.4-0.49,4.58-1.47,6.53c-0.98,1.96-2.31,3.58-4,4.86s-3.59,2.13-5.71,2.55l11.95,20.68h-5.66
			l-11.77-20.29h-8.94v20.29H789.51z M794.4,355.75h11.28c1.72,0,3.3-0.42,4.73-1.28c1.43-0.85,2.57-2,3.42-3.46
			c0.85-1.46,1.28-3.1,1.28-4.94c0-1.84-0.43-3.49-1.28-4.94c-0.85-1.46-1.99-2.61-3.42-3.46c-1.43-0.85-3.01-1.27-4.73-1.27H794.4
			V355.75z"/>
		<path class="st2" d="M827.06,380.94v-48.9h5.31l25.81,40.06v-40.06h4.89v48.9h-5.27l-25.85-40.06v40.06H827.06z"/>
		<path class="st2" d="M871.11,380.94v-48.9H876v48.9H871.11z"/>
		<path class="st2" d="M899.23,380.94l-17.74-48.9h5.17l15.51,42.75l15.58-42.75h5.17l-17.78,48.9H899.23z"/>
		<path class="st2" d="M943.73,332.04h6.08l17.81,48.9h-5.2l-3.81-10.48h-23.65l-3.81,10.48h-5.21L943.73,332.04z M936.74,365.57
			h20.05l-10.02-27.52L936.74,365.57z"/>
		<path class="st2" d="M973.21,380.94v-48.9h4.89v44.01h22.46v4.89H973.21z"/>
		<path class="st2" d="M1020.81,380.94v-7.61c1.51-1.14,3.31-2.56,5.38-4.24c2.07-1.69,4.2-3.52,6.39-5.48
			c2.19-1.97,4.21-3.94,6.08-5.92c1.86-1.98,3.38-3.87,4.56-5.66s1.76-3.33,1.76-4.61c0-1.42-0.35-2.72-1.05-3.89
			c-0.7-1.18-1.62-2.11-2.78-2.81s-2.44-1.05-3.86-1.05c-1.42,0-2.71,0.35-3.88,1.05s-2.1,1.64-2.79,2.81
			c-0.7,1.18-1.05,2.47-1.05,3.89h-8.52c0-3.07,0.75-5.84,2.24-8.29c1.49-2.46,3.46-4.4,5.92-5.83c2.46-1.43,5.15-2.15,8.09-2.15
			c2.98,0,5.69,0.73,8.14,2.18c2.45,1.46,4.4,3.42,5.87,5.89c1.47,2.47,2.2,5.2,2.2,8.21c0,1.58-0.29,3.18-0.87,4.79
			c-0.58,1.61-1.4,3.23-2.44,4.86s-2.28,3.28-3.7,4.94c-1.42,1.67-2.99,3.37-4.7,5.1c-1.71,1.74-3.51,3.51-5.4,5.33h17.36v8.52
			H1020.81z"/>
		<path class="st2" d="M1077.68,381.84c-2.84,0-5.43-0.66-7.75-1.97c-2.33-1.32-4.34-3.14-6.03-5.47c-1.69-2.33-2.99-5.02-3.89-8.09
			c-0.91-3.06-1.36-6.34-1.36-9.83s0.45-6.77,1.36-9.83c0.91-3.06,2.21-5.76,3.89-8.09c1.69-2.33,3.7-4.15,6.03-5.47
			c2.33-1.32,4.91-1.97,7.75-1.97s5.43,0.66,7.75,1.97c2.33,1.32,4.33,3.14,5.99,5.47c1.66,2.33,2.96,5.02,3.88,8.09
			c0.92,3.06,1.38,6.34,1.38,9.83s-0.46,6.77-1.38,9.83c-0.92,3.06-2.21,5.76-3.88,8.09c-1.67,2.33-3.66,4.15-5.99,5.47
			C1083.1,381.19,1080.52,381.84,1077.68,381.84z M1077.68,373.32c2.49,0,4.55-0.79,6.18-2.38c1.63-1.58,2.84-3.66,3.63-6.22
			c0.79-2.56,1.19-5.31,1.19-8.24c0-3.1-0.42-5.92-1.26-8.47c-0.84-2.55-2.07-4.58-3.7-6.09s-3.64-2.27-6.04-2.27
			c-1.89,0-3.52,0.46-4.91,1.38c-1.39,0.92-2.53,2.17-3.44,3.75s-1.58,3.38-2.03,5.4c-0.44,2.01-0.66,4.12-0.66,6.3
			c0,2.91,0.4,5.65,1.21,8.23c0.8,2.57,2.03,4.65,3.67,6.24C1073.16,372.53,1075.21,373.32,1077.68,373.32z"/>
		<path class="st2" d="M1100.17,380.94v-7.61c1.51-1.14,3.31-2.56,5.38-4.24c2.07-1.69,4.2-3.52,6.39-5.48
			c2.19-1.97,4.21-3.94,6.08-5.92c1.86-1.98,3.38-3.87,4.56-5.66s1.76-3.33,1.76-4.61c0-1.42-0.35-2.72-1.05-3.89
			c-0.7-1.18-1.62-2.11-2.78-2.81s-2.44-1.05-3.86-1.05c-1.42,0-2.71,0.35-3.88,1.05s-2.1,1.64-2.79,2.81
			c-0.7,1.18-1.05,2.47-1.05,3.89h-8.52c0-3.07,0.75-5.84,2.24-8.29s3.46-4.4,5.92-5.83c2.46-1.43,5.15-2.15,8.09-2.15
			c2.98,0,5.69,0.73,8.14,2.18c2.45,1.46,4.4,3.42,5.87,5.89c1.47,2.47,2.2,5.2,2.2,8.21c0,1.58-0.29,3.18-0.87,4.79
			c-0.58,1.61-1.4,3.23-2.44,4.86s-2.28,3.28-3.7,4.94c-1.42,1.67-2.99,3.37-4.7,5.1c-1.71,1.74-3.51,3.51-5.4,5.33h17.36v8.52
			H1100.17z"/>
		<path class="st2" d="M1155.12,381.84c-3.14,0-5.98-0.76-8.52-2.29c-2.54-1.52-4.55-3.56-6.03-6.09c-1.48-2.54-2.22-5.32-2.22-8.35
			h8.52c0,1.51,0.37,2.89,1.12,4.14c0.74,1.25,1.74,2.24,2.99,2.97c1.25,0.73,2.62,1.1,4.14,1.1s2.89-0.37,4.12-1.1
			c1.23-0.73,2.22-1.72,2.97-2.97c0.75-1.25,1.12-2.62,1.12-4.14c0-1.51-0.32-2.9-0.96-4.17c-0.64-1.27-1.68-2.28-3.11-3.04
			c-1.43-0.76-3.32-1.13-5.68-1.13H1141l5.17-24.73h24.03v8.52h-17.12l-1.57,7.68l3.46,0.04c3.31,0.12,6.23,0.92,8.77,2.41
			c2.54,1.49,4.52,3.49,5.96,5.99c1.43,2.5,2.15,5.31,2.15,8.43c0,2.28-0.43,4.44-1.29,6.46c-0.86,2.03-2.06,3.81-3.6,5.34
			s-3.31,2.74-5.33,3.62C1159.62,381.41,1157.44,381.84,1155.12,381.84z"/>
	</g>
	<g style="clip-path:url(#SVGID_00000060709189224650900600000014581939714369657790_);">
		<path class="st2" d="M735.6,318.81v-48.9h30.67v8.52h-22.15v9.92h17.57v8.52h-17.57v13.41h22.15v8.52H735.6z"/>
		<path class="st2" d="M772.56,318.81v-48.9h9.22l20.64,33.5v-33.5h8.52v48.9h-9.19l-20.68-33.5v33.5H772.56z"/>
		<path class="st2" d="M840.56,319.72c-3.4,0-6.56-0.66-9.48-1.99c-2.92-1.33-5.47-3.16-7.63-5.5c-2.17-2.34-3.86-5.04-5.08-8.1
			c-1.22-3.06-1.83-6.34-1.83-9.83c0-3.68,0.66-7.06,1.97-10.13c1.32-3.07,3.11-5.74,5.4-8s4.87-4,7.77-5.24
			c2.9-1.23,5.92-1.85,9.06-1.85c3.52,0,6.93,0.82,10.25,2.46s6.25,4.17,8.78,7.6l-7.61,4.09c-1.56-1.91-3.35-3.34-5.36-4.28
			c-2.01-0.94-4.07-1.41-6.17-1.41c-2.05,0-4.01,0.42-5.89,1.26c-1.88,0.84-3.54,2.02-5,3.55s-2.6,3.32-3.44,5.38
			c-0.84,2.06-1.26,4.31-1.26,6.76c0,2.31,0.41,4.48,1.22,6.51c0.82,2.04,1.94,3.82,3.37,5.34c1.43,1.53,3.09,2.72,4.98,3.58
			c1.89,0.86,3.91,1.29,6.08,1.29c1.44,0,2.86-0.23,4.24-0.68s2.69-1.11,3.91-1.97c1.22-0.86,2.32-1.91,3.28-3.14
			c0.97-1.23,1.78-2.63,2.43-4.19h-8.91v-7.44h18.93c0.09,3.56-0.47,6.9-1.68,10.02s-2.92,5.88-5.13,8.28
			c-2.21,2.4-4.79,4.27-7.72,5.62C847.13,319.04,843.96,319.72,840.56,319.72z"/>
		<path class="st2" d="M870.22,318.81v-48.9h8.52v40.38h20.36v8.52H870.22z"/>
		<path class="st2" d="M906.44,318.81v-48.9h8.52v48.9H906.44z"/>
		<path class="st2" d="M940.6,319.72c-2.7,0-5.29-0.42-7.77-1.28c-2.48-0.85-4.65-2.07-6.51-3.67c-1.86-1.59-3.2-3.51-4.02-5.75
			l8-2.93c0.33,0.93,0.99,1.78,1.99,2.55c1,0.77,2.22,1.39,3.67,1.85c1.44,0.47,2.99,0.7,4.65,0.7c1.7,0,3.29-0.26,4.77-0.79
			c1.48-0.52,2.67-1.26,3.58-2.2c0.91-0.94,1.36-2.04,1.36-3.3c0-1.28-0.48-2.33-1.43-3.16c-0.96-0.83-2.18-1.48-3.67-1.97
			c-1.49-0.49-3.03-0.86-4.61-1.12c-3.47-0.54-6.58-1.36-9.33-2.48c-2.75-1.12-4.92-2.67-6.51-4.65c-1.59-1.98-2.39-4.54-2.39-7.68
			c0-2.96,0.85-5.54,2.55-7.75c1.7-2.21,3.94-3.93,6.71-5.17c2.77-1.23,5.76-1.85,8.98-1.85c2.68,0,5.26,0.42,7.75,1.26
			c2.49,0.84,4.67,2.06,6.55,3.67c1.87,1.61,3.22,3.54,4.03,5.8l-8.03,2.9c-0.33-0.93-0.99-1.78-1.99-2.55s-2.22-1.38-3.67-1.83
			c-1.44-0.45-2.99-0.68-4.65-0.68c-1.65-0.02-3.22,0.24-4.7,0.79s-2.68,1.29-3.62,2.22c-0.93,0.93-1.4,2-1.4,3.21
			c0,1.56,0.44,2.74,1.31,3.53c0.87,0.79,2.04,1.37,3.51,1.73c1.47,0.36,3.1,0.69,4.89,1c3.26,0.51,6.28,1.37,9.05,2.58
			c2.77,1.21,4.99,2.82,6.67,4.84c1.68,2.01,2.51,4.48,2.51,7.39c0,2.96-0.84,5.55-2.51,7.77s-3.9,3.95-6.67,5.19
			C946.88,319.1,943.86,319.72,940.6,319.72z"/>
		<path class="st2" d="M994.01,269.91h8.52v48.9h-8.52v-21.94h-20.26v21.94h-8.52v-48.9h8.52v18.44h20.26V269.91z"/>
		<path class="st2" d="M1024.88,318.81v-48.9h4.89v44.01h22.46v4.89H1024.88z"/>
		<path class="st2" d="M1074.9,269.91h6.08l17.81,48.9h-5.2l-3.81-10.48h-23.65l-3.81,10.48h-5.21L1074.9,269.91z M1067.92,303.44
			h20.05l-10.02-27.52L1067.92,303.44z"/>
		<path class="st2" d="M1104.38,318.81v-48.9h5.31l25.81,40.06v-40.06h4.89v48.9h-5.27l-25.85-40.06v40.06H1104.38z"/>
		<path class="st2" d="M1170.05,319.72c-3.35,0-6.49-0.66-9.41-1.97c-2.92-1.32-5.48-3.14-7.67-5.48c-2.19-2.34-3.9-5.04-5.13-8.1
			c-1.23-3.06-1.85-6.34-1.85-9.83c0-3.56,0.64-6.88,1.92-9.96c1.28-3.07,3.04-5.76,5.27-8.05c2.24-2.29,4.8-4.08,7.7-5.36
			c2.9-1.28,5.98-1.92,9.24-1.92c3.75,0,7.29,0.87,10.64,2.62c3.34,1.75,6.18,4.23,8.5,7.44l-4.37,2.38
			c-1.86-2.44-4.1-4.32-6.72-5.62c-2.62-1.3-5.32-1.96-8.09-1.96c-2.63,0-5.11,0.53-7.42,1.59c-2.32,1.06-4.36,2.53-6.13,4.42
			c-1.77,1.89-3.16,4.06-4.16,6.53c-1,2.47-1.5,5.12-1.5,7.96c0,2.82,0.5,5.46,1.5,7.93c1,2.47,2.38,4.64,4.14,6.51
			c1.76,1.88,3.8,3.34,6.13,4.4c2.33,1.06,4.82,1.59,7.48,1.59c2.19,0,4.27-0.38,6.23-1.14c1.97-0.76,3.77-1.82,5.4-3.2
			s3.01-2.98,4.14-4.82c1.13-1.84,1.95-3.84,2.46-6.01h-13.2v-4.44h18.9c-0.07,3.38-0.75,6.54-2.03,9.5
			c-1.28,2.96-3.02,5.56-5.22,7.81c-2.2,2.25-4.73,4-7.58,5.27C1176.37,319.08,1173.31,319.72,1170.05,319.72z"/>
		<path class="st2" d="M1218.6,319.72c-3.91,0-7.29-0.96-10.13-2.86s-5.02-4.48-6.55-7.7c-1.53-3.22-2.29-6.8-2.29-10.74v-28.5h4.89
			v28.5c0,2.98,0.55,5.72,1.64,8.21c1.09,2.49,2.69,4.48,4.79,5.97c2.1,1.49,4.65,2.24,7.65,2.24c3.07,0,5.65-0.75,7.74-2.25
			c2.08-1.5,3.66-3.5,4.73-5.99c1.07-2.49,1.61-5.22,1.61-8.17v-28.5h4.89v28.5c0,2.96-0.44,5.72-1.31,8.29
			c-0.87,2.57-2.13,4.84-3.77,6.79c-1.64,1.96-3.63,3.48-5.97,4.58C1224.17,319.17,1221.54,319.72,1218.6,319.72z"/>
		<path class="st2" d="M1260.94,269.91h6.08l17.81,48.9h-5.2l-3.81-10.48h-23.65l-3.81,10.48h-5.21L1260.94,269.91z M1253.95,303.44
			H1274l-10.02-27.52L1253.95,303.44z"/>
		<path class="st2" d="M1313.08,319.72c-3.35,0-6.49-0.66-9.41-1.97c-2.92-1.32-5.48-3.14-7.67-5.48c-2.19-2.34-3.9-5.04-5.13-8.1
			c-1.23-3.06-1.85-6.34-1.85-9.83c0-3.56,0.64-6.88,1.92-9.96c1.28-3.07,3.04-5.76,5.27-8.05c2.24-2.29,4.8-4.08,7.7-5.36
			c2.9-1.28,5.98-1.92,9.24-1.92c3.75,0,7.29,0.87,10.64,2.62c3.34,1.75,6.18,4.23,8.5,7.44l-4.37,2.38
			c-1.86-2.44-4.1-4.32-6.72-5.62c-2.62-1.3-5.32-1.96-8.09-1.96c-2.63,0-5.11,0.53-7.42,1.59c-2.32,1.06-4.36,2.53-6.13,4.42
			c-1.77,1.89-3.16,4.06-4.16,6.53c-1,2.47-1.5,5.12-1.5,7.96c0,2.82,0.5,5.46,1.5,7.93c1,2.47,2.38,4.64,4.14,6.51
			c1.76,1.88,3.8,3.34,6.13,4.4c2.33,1.06,4.82,1.59,7.48,1.59c2.19,0,4.27-0.38,6.23-1.14c1.97-0.76,3.77-1.82,5.4-3.2
			s3.01-2.98,4.14-4.82c1.13-1.84,1.95-3.84,2.46-6.01h-13.2v-4.44h18.9c-0.07,3.38-0.75,6.54-2.03,9.5
			c-1.28,2.96-3.02,5.56-5.22,7.81c-2.2,2.25-4.73,4-7.58,5.27C1319.4,319.08,1316.34,319.72,1313.08,319.72z"/>
		<path class="st2" d="M1342.67,318.81v-48.9h29.76v4.89h-24.87v15.37h20.57v4.89h-20.57v18.86h24.87v4.89H1342.67z"/>
	</g>
</g>
<g>
</g>
<g>
</g>
<g>
</g>
<g>
</g>
<g>
</g>
<g>
</g>
<g>
</g>
<g>
</g>
<g>
</g>
<g>
</g>
<g>
</g>
</svg>
